<svg id="Layer_1" preserveAspectRatio="none" data-name="Layer 1" xmlns="http://www.w3.org/2000/svg" viewBox="0 0 1176 1305"><title>tree-top</title><path d="M744.5,1.9C739.9,4,733,11.1,730.1,16.8a33.52,33.52,0,0,0-2.7,9.1c-.4,2.8-1,5.1-1.5,5.1a1,1,0,0,0-.9,1c0,.7.6.7,1.8.1,1.6-.8,1.7-.1,1.6,9.2-.2,14.9-.2,14.8-2.6,9.4-1.1-2.6-2.4-4.7-2.9-4.7s-.9-1.4-.9-3-.5-3-1-3-1,1-.8,2.2c.4,3.4-1.2,20.5-2.5,27.1-1,5-1.9,6.6-6.6,11.3a61.91,61.91,0,0,1-5.8,5.4,6.38,6.38,0,0,1-.3-2.4c0-1.4-.4-2.8-1-3.1s-1,1.5-1,4.9c0,3.1-.2,5.6-.5,5.6a28.61,28.61,0,0,1-4.9-3.4,47,47,0,0,0-9.1-5.2c-4.9-1.8-5.2-2.8-2.9-8.8.6-1.6.2-1.8-3.7-1.5-4.2.4-4.4.3-4.2-2.3.1-2.4-.1-2.6-2-1.9a70.87,70.87,0,0,0-7.7,4.6l-5.5,3.7-9.5-.6c-7.4-.4-9.8-1-10.8-2.3-1.1-1.5-.6-2.3,3.7-6.3,9.2-8.3,11-14.2,6.7-21.3-2.1-3.5-2.4-3.6-3.8-2a42,42,0,0,0-3.7,6.3,43.07,43.07,0,0,1-5.6,8.5l-3.3,4-3.8-4.3-3.9-4.4-8.7-.5c-9.1-.6-16.1,1-18.8,4.2C598.1,61,605.7,68,612.5,68c3.7,0,3.1,1.4-1.5,3.5-5.5,2.5-7.4,4.8-6.1,7.3s5.5,5.2,8.3,5.2c3.1,0,4,.8,6.7,5.4,1.7,3.1,2.1,4.8,1.6,7.8-.6,3.2-.9,3.7-2.1,2.7a3.58,3.58,0,0,1-1.4-2.5,2.54,2.54,0,0,0-1.2-2c-.8-.5-.9-.2-.5.9.7,1.8-.3,2.2-1.8.8-2.6-2.3-11.9-4.3-18.7-3.9-6.6.4-7.2.6-10.5,4.2s-3.6,3.7-5.3,2.1-2-1.5-4.4,0a19.83,19.83,0,0,0-4.8,5.4c-2,3.1-2.3,5-2.3,13.1v9.5l-4.3-.4-4.2-.3.1-4.8c.2-4.2.5-4.9,2.6-5.4,2.6-.7,2.8-2,.9-5.4-1.1-2.1-.9-2.7,2.6-6.1,3.3-3.4,3.8-4.5,3.8-8.5,0-2.7-.5-4.6-1.1-4.6s-3.7,1.6-6.9,3.5-6.4,3.5-7.2,3.5-2.6-1.3-4.1-2.8L548,93.4l3-2.9c4.1-3.9,6.6-10.8,5.2-13.9-1.1-2.6-7.9-8.2-8.8-7.4a38.85,38.85,0,0,0-1.3,5.7c-.9,5.5-2.1,7.9-2.1,4.1s-3.8-10.6-8.1-14.4c-2.1-2-3.9-4.2-3.9-5,0-1.4-6.3-3.1-7.9-2.2-.5.3-1.2-.6-1.6-2.2-.7-2.9-4.6-9.2-5.6-9.2-.4,0-2.1,3.6-3.9,8-3.5,8.6-5.4,11.1-6.4,8.4a3.07,3.07,0,0,1,0-2.5c.9-1.6-.8-1-7.5,2.5a127.91,127.91,0,0,1-12.9,5.5c-8.2,2.8-13.2,1.6-16.7-4a29.37,29.37,0,0,0-5.1-5.8l-2.7-2.2,1.7-3.7c4.1-8.5,2.8-22.6-2.6-28.8l-3-3.4L455,22c-6.6,4.7-9.1,17.8-5.1,26.6l1.8,4-6.7.1c-3.9.1-8,.8-9.7,1.6-2.8,1.5-3.1,1.4-7.3-1.4-5.8-3.9-9-4.7-10.5-2.6-.7.9-1.5,1.3-1.9.9s-.7.2-.5,1.3c.6,4.9-4.1,10.5-8.8,10.5-2.6,0-2.7.3-1.3,3.1.8,1.4.6,2.8-.9,5.7-1.8,3.4-6,16.5-7.9,24.6-.9,3.5-2.9,4.5-3.9,1.9a11.64,11.64,0,0,0-2.1-3.5c-1.3-1.6-1.1-2,1.7-4.4,1.7-1.4,3.1-3.2,3.1-3.9,0-2.3-5.8-2.3-10,.1-3.6,2.1-4.2,2.1-6.9.8-2.1-1.1-2.8-2-2.4-3.4.7-2.6-.7-2.5-6.8.6-2.8,1.4-5.3,2.3-5.6,2s-1.2.1-2,.9c-2.1,2.2-6.1,2.9-7.8,1.5-2.1-1.7-1.9-2.7.6-3.5,6-1.9,9.6-11.8,6.6-18-2-4.2-4.7-5.1-9.1-3-5.6,2.7-7.1,5-7.1,11,0,2.9-.3,4.8-.7,4.2-.5-.8-.8-.6-.8.4a4,4,0,0,1-1.4,2.8,18.06,18.06,0,0,0-3.1,4.7c-1.1,2.4-2,3.3-2.7,2.6s-.3-1.7,1.1-3.1c3.8-3.8,2-8.4-3.7-9.7a57.33,57.33,0,0,1-9.1-3.7c-5.8-2.9-7.4-3.2-15.5-3.2-7.1,0-10,.4-13,2-6,3-6.6,4.8-3.1,8.6a30.48,30.48,0,0,0,5.8,4.5c3.7,2,14.3,2.9,18.9,1.6,3.3-.9,4.5-.7,9,1.5,5.5,2.6,8.8,5,8.8,6.5s-3.9.8-10.2-2.2-11.7-3.7-16.2-2.1c-2.3.9-2.4,1.3-1.5,4.6,1,3.5.9,3.8-2.8,7-5.1,4.4-11.7,13-13.7,18-2,4.8-2.4,5.2,10.4-9.3l8.2-9.3,3.8,3.5a43.5,43.5,0,0,0,7,5.1c2.8,1.5,3,1.8,1.8,3.3a20.68,20.68,0,0,0-2.8,5,11.32,11.32,0,0,1-3.5,4.8c-1.9,1.2-2.7,1.2-5.8-.1-6-2.5-7.4-2.1-8.2,2.5l-.7,4.1-4.6-.8c-9.8-1.6-15.9.3-18.8,5.8l-1.6,3.1-1.5-2.2a8.57,8.57,0,0,1-1.1-5.1c.3-2,0-2.9-.9-2.9a1.35,1.35,0,0,0-1.3,1.4,2.26,2.26,0,0,1-1.5,1.9c-2.2.9-6.2,7.9-8.5,15.1-2.1,6.3-2.3,6.6-5.4,6.6a11,11,0,0,0-5.1,1.3c-1.6,1.2-1.6,1.8-.6,4.7a30.45,30.45,0,0,0,3.4,6.4c2,2.7,4.1,6.6,3.4,6.6-.1,0-2.4-.7-5.1-1.5-5.9-1.8-8.7-.8-5.6,2,2.5,2.3,2.6,6,.2,11.4-1.4,3.1-2.1,3.8-3,2.9a5.1,5.1,0,0,1-1.2-3.3c0-5.3-11.3-17.9-19.3-21.6-5.6-2.5-8.2-2.4-13.4.7-3.6,2.1-4.2,2.8-3.2,4a3.58,3.58,0,0,0,2.5,1.4c2.5,0,18.1,8.7,26.7,14.9l8.7,6.2v7c0,6.5-.3,7.4-3.6,11.7a79,79,0,0,0-7,12.2c-1.9,4.1-4.1,8.6-4.9,10s-2.3,4.2-3.5,6.3l-2.1,3.8-2-2.6c-2.5-3.1-8.1-6.1-13.2-7-4.4-.9-4.8-2.8-1.2-6.1,4.3-4,2.8-7.7-3.6-8.6-1.3-.2-5-3-8.1-6.1-6.2-6.2-12.4-9.6-17.5-9.7-3.3,0-3.3,0-3.3,4.7.1,6.4,2.9,12.3,8.3,17.5l4.5,4.2-4.5,2.8c-2.4,1.6-4.1,3.3-3.8,3.8,1,1.6,5.6,1.1,10.5-1.1a13.59,13.59,0,0,1,8.1-1.4c3.6.6,3.7.7,2.6,4-.8,2.8-.6,3.9,1.1,6.7,2.9,4.8,6.2,15.1,6.2,19.7,0,3.4-.4,4.2-3.7,6.1-2,1.2-4.5,1.9-5.4,1.7s-2,0-2.1.5-1.8,1.2-3.6,1.4a14.87,14.87,0,0,0-5.7,2c-2.2,1.4-2.5,1.4-2.5.1s-3.1-8.3-7.1-15.7l-1.8-3.5.5,6.3c.3,4.5.2,6.2-.6,5.7-.6-.4-.8-1.6-.4-2.8.6-1.8.4-2-.7-1-1.6,1.3-4.1,0-5.2-2.7-.4-1-.6-.8-.6.7a4.31,4.31,0,0,1-1.1,2.8c-2.1,1.3-4.3,7.1-5.6,15.4-.8,4.7-1.9,10.8-2.3,13.6-1,5.7-.9,5.4-2.6,7.8-1.2,1.8-1.8,1.6-10.1-2.3a88.93,88.93,0,0,1-11.6-6.2c-3.5-2.5-4.8-1.8-1.6.8a21.32,21.32,0,0,1,4.3,5.8,34.55,34.55,0,0,0,6.2,7.6l4.3,3.7-5,.7c-11.6,1.5-18.6,6.1-19.6,12.8-.7,4.1-2.4,5.2-2.4,1.5a7.23,7.23,0,0,0-.9-3.5c-.5-.8-.7,1.8-.5,6.2.4,8.4.4,8.3-5.9,6.5-2.2-.6-4.1-.8-4.4-.5s1.7,1.1,4.3,1.9l4.9,1.4-.1,8.4a74.49,74.49,0,0,1-1.8,14.5,50.13,50.13,0,0,0-1.6,8.2c0,1.9.3,2,3.3,1,6-2,7.7-4.3,10.8-14.8l1.4-4.5.3,4a68.75,68.75,0,0,1-.9,12.3c-.7,4.5-1,8.4-.8,8.7s2.2,0,4.3-.6c9.2-2.5,10.3-16.9,2.6-33.2a58.16,58.16,0,0,1-3.6-9.5c-.8-3.7-2.4-3.3-2.4.7a9.87,9.87,0,0,1-1.3,4.6c-1.3,1.7-1.5,1.6-2.4-1.1-.6-1.6-1.4-3.6-1.7-4.5-.5-1.2.8-2.3,5.1-4.6,6.1-3.3,21-8.3,24.5-8.3,1.8,0,1.9.4,1.4,3.5a95.56,95.56,0,0,1-4.9,12.7c-3.5,7.7-4.2,10.4-4.2,15.5,0,6.1.1,6.4,4.2,10.4l4.2,4,.6-3.8c1.5-9.3,3.6-19.2,5-23.3l1.5-4.5-.4,8.8c-.3,6.1-.9,9.5-2.2,11.5-1.7,2.6-1.7,2.7.1,1.2s1.8-1.3,1.2.2a67.43,67.43,0,0,0-1.3,6.9c-.7,5-.6,5.1,1.5,4,2.9-1.6,3.9,1,2.2,5.3a47.64,47.64,0,0,0-1.8,5.3c-.5,2.3-.5,2.3,3.2.7,4.6-1.9,5.8-1.1,1.6,1-3.5,1.9-9.1,7.6-9.1,9.3s-.4,1.6-6.4-.2c-6.9-2.1-15.8-1.9-20.4.4a16.23,16.23,0,0,0-6.1,6.1l-2.4,4.3,7.4-.9c8.5-1,25-1.1,32.4-.2,2.8.3,6,.6,7.3.7,1.9.1,2.2.6,2.2,4.6a41.43,41.43,0,0,1-2.1,10.9c-1.8,5.6-2.3,6.3-4.2,5.9-1.6-.4-1.8-.2-.8.5.7.5,1.6,3.2,1.8,5.9.4,3.8.1,5.2-1.2,6.3-1.6,1.3-2.2,1-5.7-3-2.2-2.5-3.5-3.5-2.8-2.2,1.1,2.3.7,4.2-1.1,4.2-.5,0-.9-1.2-.9-2.7a13.07,13.07,0,0,0-2.2-5.9l-2.2-3.2-3.1,4.4-3.2,4.4-3.1-3.8a22.3,22.3,0,0,0-12.3-7.7c-2.3-.6-2.8-.3-3.8,2.6a22.45,22.45,0,0,0-1.1,6.1c0,3,3.2,10.2,5,11.3,2.1,1.3.8,2-3.1,1.7-4.7-.5-5.9.6-5.9,5.4,0,4.1-2.1,5.9-4.9,4.4-1.2-.6-2.1-1.5-2.1-2,0-1.6-6.9-8.8-10.6-11.1C99.5,431.8,98,430,98,429s-1.6-4.9-3.5-8.6-3.5-7.3-3.5-8a2.54,2.54,0,0,0-.8-1.8c-.5-.3-.7,1.6-.4,4.3s0,5.1-.6,5.5-.7,1.7-.2,3.6c.8,2.7.6,3-1.5,3s-2.4-.3-1.5-2.6c1.5-3.8,1.2-13.1-.5-16.4-1.3-2.6-1.8-2.8-4-2a19.17,19.17,0,0,0-10.1,8.2c-2.2,3.5-2.6,3.7-4.7,2.6-3.4-1.9-17.4-1.6-22.9.5-5,1.9-10.8,7.6-10.8,10.5a4.71,4.71,0,0,1-1.2,3c-2.1,2.1,1.2,1.4,8.7-1.7A140.88,140.88,0,0,1,56,424c4.7-1.2,9.2-2.3,10.1-2.6,1.4-.4,1.6.4,1.1,6.5-.3,5.1,0,7.7,1.2,10.1a15.08,15.08,0,0,1,1.6,4.7c0,.9,1.2.6,4-1.2,4.4-2.8,5.8-3,11.3-1.4,3.8,1,3.9,1.1,3.2,4.7-.9,5.4-3.8,7.4-9.2,6.6-3.6-.5-4.3-.4-4.3,1,0,2.6-1.6,1.9-5.1-2.2-1.7-2-2.9-3-2.6-2.1a5.21,5.21,0,0,1-.9,3.8c-1.5,2-1.5,2-5.2.1-4.3-2.2-14.4-5-18.2-5-2.9,0-8.8,1.6-10.8,2.9-1.1.7-1,1.6.7,4.9a21.43,21.43,0,0,0,4.7,6.1c4,3.1,12.9,6.1,18.4,6.1h5v3.8c0,3-.5,4.1-2.3,4.9C54.8,477.5,46,485,46,486.5c0,2.5,5,1.7,11-1.6l5.4-3,1.8,2.3c2.2,2.8,2.2,3.4.3,4.2a2.07,2.07,0,0,1-2.3-1c-1.7-3.1-3.6,5.9-2.7,13.3.9,8,.9,10.5,0,15.3-.6,2.9-.5,3.3.6,2.2,2.1-2,3.3-1.4,5.4,2.5,3.4,6.2,4.1,6.5,8.3,3.7a29.71,29.71,0,0,0,5.4-4.7c2.2-2.8,2.2-1.5.2,7.4-.9,3.9-1.4,7.2-1.2,7.5.9.8,7.2-1.7,9.4-3.7a11.54,11.54,0,0,0,3-5.8c.4-2,1.4-4.1,2.2-4.7,1.9-1.4,1.8-6-.2-10.9-.9-2.1-1.4-4-1.2-4.3s2.5.3,5.1,1.1c4.4,1.6,7.5,3.7,7.5,5.4,0,.4,2,2.7,4.4,5,2.9,2.8,3.9,4.4,3,4.7a1.71,1.71,0,0,1-2-.6c-1-1.6-3.4,2-3.4,5.1a43.4,43.4,0,0,1-1.6,8.2c-1.2,4.4-2.7,6.7-6.5,10.4-5.4,5.2-5.7,5.9-3.2,7.4,1.6.9,1.6,1.1.2,2.8a3.91,3.91,0,0,0-1.2,3A5.6,5.6,0,0,1,93,561c-1.1,2-1.2,2-3.7-1.7-3.5-5.4-10.3-11.5-10.3-9.4,0,1.8-4.9,8.2-5,6.4,0-.9,1.5-4.5,4.9-11.7.2-.6-2.8,2.1-6.6,6-7.9,7.7-12.2,15.3-14.6,25.4-3.7,15.5-3.4,17.7,2.4,18.6,2.7.5,3.9,1.2,3.9,2.3.1,1.4.2,1.4,1.1-.1.5-1,2.5-2,4.4-2.4,4-.7,4.7-2.4,1-2.4-1.4,0-2.5-.5-2.5-1.1a56.13,56.13,0,0,1,3.4-8.8c1.8-4.2,3.7-8.5,4.2-9.6,2.7-6.4.8,17.3-2,25.3-1.6,4.4-.8,7.6,1.4,6.2,2.5-1.6,4.8-1.1,5.5,1.1.9,2.9.5,3-4.5,1.5-3.7-1.1-4.6-1.8-4.8-4-.2-1.4-.8-2.6-1.3-2.6s-.7,1.1-.3,2.4c.5,2.1.1,2.5-2.6,3.1-2.3.5-3.6.2-5.1-1.1-1.2-1-1.9-1.3-1.9-.5a12.88,12.88,0,0,1-2.2,4.2c-1.8,2.3-2.2,4.3-2.2,9.7,0,8.5,3,15.2,8.7,19.3,4,2.9,4,2.9,6.1,1s2.1-2,4,.8c2.7,4,5.3,5.4,11.4,6.1,4,.5,5.1.3,4.8-.6-.7-1.8,6-17.4,8.1-19,2.3-1.7,6.2-1.8,6.7-.2a30.62,30.62,0,0,1,1,3.9,22.27,22.27,0,0,0,3,6,64.34,64.34,0,0,1,4.9,8.4c1.3,2.8,3.6,6.9,5,9.3s2.7,4.8,2.7,5.6a1,1,0,0,0,1.4,1,1.78,1.78,0,0,1,2.1.5c1,1.7,2.5,1.3,2.5-.8,0-1,1.1-2.6,2.4-3.5a8,8,0,0,0,3.1-3.6c.3-1.1,1.1-2,1.6-2s.7.5.3,1.1,0,.9,1.3.5c1.8-.6,2.1-.1,2.7,3.4.8,5.1,4.5,13.2,5.7,12.5.4-.3,1.1-2.2,1.5-4.1.6-3.2.8-3.4,2.3-2,3.3,3,9,4.6,16.1,4.6,6.6,0,7,.1,7,2.3,0,1.3-1.3,4.1-2.8,6.3-2.9,3.9-4.6,7.4-3.6,7.4a39.65,39.65,0,0,0,5.7-3.9c5.9-4.3,8.7-5.6,8.7-3.9,0,.9.3.9,1.2,0,1.6-1.6,3.5-1.5,3.5.2,0,.8-1.8,1.9-3.9,2.5a26.12,26.12,0,0,0-7.2,4.1c-2.7,2.4-4.3,3-7.8,3a39.94,39.94,0,0,0-9.4,1.5c-6.2,1.9-6.1,1.9-7-.7-.3-1.2-3.4-5-6.8-8.4s-7.5-8-9.3-10.1l-3.2-3.8-2.8,2.7a9,9,0,0,1-5.6,2.8H119v16.5l-1.9-3.1a24.54,24.54,0,0,0-5.4-5.8c-3-2.3-4.4-2.7-9.1-2.5-3.1.1-5.6.6-5.6,1.1s1.9,3,4.3,5.6c5.4,5.9,8.4,10,13.4,18.2l4,6.5-2.4,5c-1.9,4-2.3,6.4-2.1,12.2.1,4,.6,7.3,1.1,7.3s.6.4.2,1-2.3-.9-4.5-3.1c-3.6-3.8-3.9-3.9-4.2-1.7a2.68,2.68,0,0,1-2.3,2.5c-6.4.9-12.5,2.6-12.5,3.5,0,.5-1.1,1.9-2.4,2.9-4.4,3.4-6.8,10-6.7,18.4,0,4.1-.1,7.5-.3,7.5s-2.3-.7-4.6-1.5c-5.6-2-16.2-1.9-20.1,0L55,760.1l2,3.8c2.9,5.8,6.9,8.8,15.3,11.5,1,.3,1.5,1.1,1.2,1.6s-1.6.8-2.8.4c-1.9-.6-2-.5-.9.9a2.63,2.63,0,0,1,.6,2.8,24.31,24.31,0,0,0-1.4,5.1c-.8,4.3.1,4.8,3.8,2.2,1.3-.9,2.6-1.3,2.9-1,.8.8-1.6,9.6-3.5,12.5-1.7,2.8-2.5,1.8-3.6-4.1a16.8,16.8,0,0,0-4.2-7.5A33.77,33.77,0,0,1,60,783c-.7-1.3-1-1.2-1.5.5-.4,1.1-1.8,4.5-3.1,7.6a35.38,35.38,0,0,0-2.4,7.1c0,.7-2.2,5.2-4.9,9.8s-4.7,8.7-4.5,8.9,2.3-.8,4.8-2.3l4.4-2.6,1.2,3.4c.6,1.9,3,5.1,5.2,7.2l4.1,3.7,2.9-3.4,2.9-3.4-.7,3.5c-1.1,5.4-.7,14.5.6,17.1,2,3.7,5.3,5.9,6.8,4.6,2.2-1.8,5.9-9.9,6.7-14.4.9-5.5,4.8-9.5,8.4-8.7a23.35,23.35,0,0,1,4.9,2.1c1.2.7,2.8,1,3.5.6a17.29,17.29,0,0,1,5.5-1A22.59,22.59,0,0,0,111,822a2.72,2.72,0,0,1,2.4-.3c.3.3.6,5.6.6,11.6,0,10-.1,10.9-1.7,10.2-1-.4-2.7-1-3.8-1.3a10,10,0,0,1-3.1-1.3c-1.8-1.4-1.7,9.5.1,13.8,2,4.6,7.4,13.3,9.5,15.1,5.6,4.8,12.5,7.8,13.6,6.1.9-1.5.6-11.2-.4-14-.9-2.4-.7-2.7,2.5-3.8a11.38,11.38,0,0,0,5.5-4.7l2-3.4,2.9,1.7c1.6,1,2.9,2.3,2.9,3,0,1.1.6,1,3-.2,4-2,4.7-1.9,8.9,1.4,3.6,2.8,3.6,2.9,3.3,9.3l-.4,6.4-5.6-2.8c-5.7-2.8-17.5-4.7-15.3-2.5s1,6.2-4.4,16.8c-3,5.9-5.5,11.1-5.5,11.6.1,1.1,4.5-6.1,8.2-13.2,1.7-3.3,3.1-6.1,3.3-6.3a86.62,86.62,0,0,1,7.5,7l7.2,7.2-.7,7.1a140.35,140.35,0,0,1-5.7,27.7c-1.2,3.7-1.9,7-1.6,7.3.9.9,6.1-1.7,9.3-4.6l3-2.8.2,5.4c.2,7.1,1.8,11.9,5.6,16.2l3.1,3.5-2.5,2.2c-3.1,2.6-8.3,9.5-7.7,10.1.2.2,2.9-1.2,5.9-3.2s10.8-6.5,17.4-9.8c11.7-5.9,11.9-6.1,8-6.3a38.79,38.79,0,0,0-13.2,2.5c-1.3.5-1.4.3-.3-1.6.6-1.3,1.3-5.5,1.4-9.4.1-4.8.8-8.4,2-10.6a17.71,17.71,0,0,0,1.8-7,26,26,0,0,1,1.3-7.1,34.27,34.27,0,0,0,1.8-5.5c.3-1.7.5-1.6,1.6.9,1.8,4.4,10.8,15.2,14.6,17.6a29.47,29.47,0,0,0,6.6,3c2.6.8,3.2.6,3.6-.9.2-1,2.1-2.5,4.1-3.4,4.6-2,21-18.1,21.8-21.3.4-1.3,1-2.4,1.5-2.4.8,0,1.1,1,2.3,7.2a127.76,127.76,0,0,1,.7,13.7l.3,11.4-3.5,1.8c-5.6,3-18.4,7-30.3,9.5-6.1,1.2-9.9,2.3-8.5,2.3a26.48,26.48,0,0,1,7.4,2.2c4.1,1.8,6.3,2.1,14.9,1.7,15.1-.5,21.1-4.4,21.8-13.8.2-3,.9-5,2.2-5.9,1.6-1.2,1.8-2.4,1.4-10.3l-.6-9,3.2,3c3.2,3,6.7,5.2,8.4,5.2,1.1,0,.8-2.1-1.5-9.2-1-3.4-1.1-5.2-.4-6.5,1-1.7,1-1.7,1.1.1,0,1.6.3,1.7,1.2.8,2.1-2.1,2.8-1.3,2.8,2.7,0,3.5.2,3.8,2.5,3.4,3.6-.7,4.6-2.4,5.8-10.5,1.7-11,1.3-20.4-1.2-27.3a46.49,46.49,0,0,1-2.4-8.5,20.16,20.16,0,0,0-3.5-6.9,27,27,0,0,1-3.2-5c0-.3,2.4-.5,5.2-.3a23.21,23.21,0,0,0,8-.7c2.7-1,2.7-1.1,1.3-5l-1.3-3.9,4.2-.6c8.9-1.4,9.5-4.4,2.4-11.5l-4-4.1,5.5,2.6c6.7,3,11.3,3.9,16.1,3,4.2-.8,4.4-2,1.6-7.7-2.2-4.2-8.2-9.1-13.5-11-2.4-.9-3.4-2-3.7-3.9-.7-4.8.2-5.2,4.3-1.5,4.4,3.9,5.1,4.1,6.9,2,1-1.2.2-2.5-4.7-7.6-3.2-3.4-4.9-5.9-3.8-5.5,5.3,2.1,8.3,2.6,11.8,2,2-.3,3.7-.2,3.7.2s-1,4.8-2.2,9.6-1.8,9.1-1.5,9.4c1.3,1.3,10.2-4.1,12-7.2a36.63,36.63,0,0,0,2.4-9.9c.6-6.7.6-6.7,2.1-3.9a31.6,31.6,0,0,0,4.5,6.1c3,3.2,3,3.3,2,9.5-.6,3.5-.9,6.5-.7,6.7,2,2.1,6.6-9.7,10.2-25.9.5-2.5,3.8-5.9,5.7-5.9.6,0,1.9,2.1,3.1,4.7l2.1,4.8-4.3,4.9c-2.4,2.7-4.2,5.1-4,5.3s3.1-.8,6.3-2.1c7.4-3.3,10.3-4.1,10.3-2.9a52.3,52.3,0,0,1-2,6.7c-2.8,8.1-2.7,8.6,1.2,7.3a15.38,15.38,0,0,0,4.2-1.9c.5-.4,2.5.3,4.5,1.6,4.4,2.8,14,4.9,18.7,4,3.8-.7,4-.3,2.1,5.1-2.5,7.1-3,9.9-1.5,8.7,1-.9,1.3,0,1.3,4.9,0,5.6.2,6.1,3.8,9.5,2.4,2.1,4.4,3.2,5.4,2.9,1.2-.5,1.4-.1.9,2-2.2,8.6-2.1,9.2,1.2,7.5a41.49,41.49,0,0,1,4.5-2c3.7-1.4,6.3-6,7.7-13.8s.9-13.8-1.7-19.2c-1.7-3.4-1.9-5.4-1.5-15l.5-11,2.7,2.2,2.7,2.2-1.8,4c-2.1,4.6-2.5,14.1-.7,18a13.06,13.06,0,0,0,4.5,4.6c3.3,2.1,3.4,2.1,5.5.3,1.1-1.1,3.7-5.3,5.7-9.4,3.4-7,3.6-8.1,3.6-17.1s-.2-10-3.8-17c-2-4.1-3.7-8.2-3.7-9.2s-.3-1.7-.7-1.7-.6,4.1-.4,9.1c.2,6.5,0,8.9-.8,8.5a2.72,2.72,0,0,1-1.1-2,9.48,9.48,0,0,0-2-3.9c-2.6-3.3-2.5-5.8.5-14.8,3.8-11.1,3.3-10.3,5.1-8.8,1.4,1.1,1.5.9.9-2.3s-.2-4.1,2.6-7.4c1.8-2.2,3.5-4.1,3.6-4.3s1,.2,1.9,1c1.3,1.4,1.3,2.5.3,8.1-1.5,8.1-.1,16.5,3.6,21.9,2.9,4,6.7,6.5,8.5,5.4s4.9-8.5,5-11.5a6.09,6.09,0,0,1,2.5-4.3c2.3-1.7,2.5-1.7,3.5.3s4.8,4.5,5.7,3.6c.3-.2-.9-2.5-2.6-4.9-3-4.1-3.1-4.6-2.2-8.8A55.56,55.56,0,0,0,445,747l.1-6.5,2.4,3c3.3,4,4.2,2.6,2.6-4.3-2-8.9-2-9.7,1.1-10,2.5-.3,2.7.1,3.7,5.1,2.1,9.9,11.5,25.8,14.2,24.1,2.3-1.4-1.5-17.3-6.1-25.1-1.1-1.8-1.6-3.4-1.2-3.7s5.2,1.9,10.7,4.7c9.4,5,10,5.4,11.6,9.9,1.8,5.2,5.5,10.8,7.1,10.8.5,0,1.5-1.4,2.1-3s1.6-3,2.2-3,4.1,2.8,7.8,6.2c7.7,6.9,8.8,8.8,24,42.4,14.1,31.2,15.2,33.8,25.1,63.4,4.9,14.5,6.1,19.2,5.5,21.5-4.4,17.5-5.5,37-5.4,91,.1,21-5.5,54.5-7.5,106.5-4.21,109.38-6,225-6,225,0,.6,110,0,110,0a120.29,120.29,0,0,0-2-24c-7-36-13.5-238.42-14-240,1-26-7.9-35.2-6.5-54.5,1.2-17.4,1-21.6-1.4-40-1-7.7-2-23.3-2.5-40a98.81,98.81,0,0,0-2-15c-3.9-16.5-4.6-19.4-7-26.3-3.2-9.1-3.2-9.8-.1-14.5,1.4-2,7.7-12.1,13.9-22.5,18.9-31.5,32.7-51.2,53.4-76.2,5.2-6.3,10-12.1,10.6-12.7s6.1-2,12.1-2.8,15.6-2.4,21.3-3.6,11.1-1.8,12.2-1.4c1.8.6,1.7.9-1.5,5.9a40.35,40.35,0,0,0-4.1,8c-.6,2.4-.4,2.6,3,2.6s3.6.2,2.6,1.9c-1.4,2.7-1.3,3.4.4,2.8,1.2-.5,1.2,0,.5,2.6-1.5,5.4-1.1,12.2.9,14.8,2.7,3.2,4.5,2,8.1-5.3,3.7-7.6,5.5-17.9,4.1-22.8-1.2-4.3-1.3-4,.3-4,.7,0,3.8,1.9,7,4.2,5.6,4.1,5.7,4.2,3.8,6.2-7.2,7.9-11.3,27.2-7.5,35.2,1.4,3,5.8,6.5,8,6.4.4,0,.8-8.2.9-18.2s.5-19.6,1-21.1l.7-2.8,4.7,5.2,4.7,5.2-1.5,6c-2.6,10.8,1.6,24.8,8.5,27.9,2.5,1.1,2.5,1.5,2.2,8.7-.3,7.6-.3,7.6,2.2,7.3a13.41,13.41,0,0,0,5-2.1c2.3-1.7,2.5-2.5,2.4-8.7a28.65,28.65,0,0,0-2.3-11.7c-3-6.9-3-18.5.1-23.6,1.2-2,2.2-3.7,2.3-3.8s5,1.1,11,2.8c14.8,3.9,15.6,3.2,1.1-1-11.7-3.4-13-4.3-10.8-7.9.7-1,1.5-1,3.8-.1,1.6.6,7.4,1.2,13,1.4,9.8.3,11.2.7,24,6.1.6.3-.8-1.6-3.3-4.2-3.5-3.9-4.3-5.3-3.8-7.4s-.1-3.2-2.2-5.2c-6.3-5.9-16.6-8.2-26-5.9-3.8,1-4.8,1-5.2,0a12.62,12.62,0,0,0-2.7-3.6c-2.1-2.1-2.1-2.2-.3-2.8,3-1,5.9-6,7.2-12.5,1-4.7,1.5-5.8,2.5-4.8,2.1,2.1,2.6-.1.9-3.7-.9-2-1.2-3.7-.7-4s5.3,2.1,10.7,5.5c9.8,6,12.9,7.6,27.6,14.3,9.9,4.6,10.9,6.5,7.7,15.7a145.54,145.54,0,0,1-6.1,14.7c-2.1,4.5-3.9,8.4-3.9,8.8,0,.8,6.1-2.4,8.3-4.3,1.6-1.4,2.1-1.3,5.6,2.2l3.9,3.8-1.5,4.2-1.6,4.1h-5.5c-3.1,0-5.7.5-5.9,1.1s1.2,2.2,3.1,3.5l3.5,2.4-2.6,2.7c-3.5,3.7-4.9,3.5-6.3-.6-1.5-4.7-5.9-10.5-10.3-13.9-2.1-1.6-3.7-2.5-3.6-2a17.12,17.12,0,0,1-1.5,4.7c-2,4.5-1.6,8.8,1.6,15,1.9,3.7,1.9,4,.2,4.9-2.7,1.5-6.5,5.9-6.1,7.1.2.6,2.3,2.1,4.7,3.4,6.5,3.2,14,1.9,26.2-4.6.3-.1.5,3.4.5,8s.2,9.6.7,11.3c.7,2.7.9,2.8,1.6,1,.5-1.1.9-7.1.9-13.3.1-10,.3-11.2,1.9-11.2.9,0,2.8-1.6,4-3.4,1.5-2.2,2.9-3.3,3.8-2.9,1.8.7,1.2,4.4-2.2,12.5-2.7,6.4-3.2,10-1.2,8,1.7-1.7,2.9-1.5,2.2.3-.9,2.2.2,1.9,6.6-2.1,4.5-2.8,6.2-3.4,7.7-2.6,1.3.8,2.4.5,4.1-.8a7.47,7.47,0,0,0,2.2-2.5,2.09,2.09,0,0,1,.2-1.3c.3-.7,11.9-6.2,13.2-6.2.3,0,.6,1.2.6,2.7,0,1.9-1.4,4-5.2,7.6-2.9,2.7-6.3,5.3-7.6,5.8-3,1.2-4,3.9-1.9,5.1,1,.5,1.7,2.2,1.7,4.1a15.33,15.33,0,0,0,1.3,5.5c.9,1.6,1.1,4.6.5,10.8-.4,4.8-1,8.9-1.3,9.2-.8.8-4.5-3-4.5-4.7s-1.6.7-5.1,7.8c-1.9,3.9-2.1,5.6-1.6,12.5.8,10.7,2.1,15,6.3,19.6l3.4,3.8,5.4-2.7,5.3-2.8,2.7,2.4c1.5,1.3,3.1,2.3,3.6,2.3s1.9-1.7,3.2-3.8c2.2-3.9,2.2-3.9,5.1-2.3s2.8,1.7,2.2,7.6a90.06,90.06,0,0,1-2.3,12.2c-.9,3.4-1.4,6.5-1.1,6.8.9.8,7.2-1.6,9.6-3.7a4.16,4.16,0,0,1,4.1-1.4c1.4.5,2.6-.1,4.1-2a9.56,9.56,0,0,0,2.1-4c0-.9,1.8-.3,5.7,1.7s5.9,2.7,6.7,1.9c.6-.6,1.1-4.1,1.1-7.8,0-6-.4-7.5-3.5-12.6a40.9,40.9,0,0,0-7.4-9,109.13,109.13,0,0,1-8.5-7.6c-2.5-2.5-4.2-3.7-3.8-2.7s.2,1.7-.3,1.7-1-1.5-1-3.3c0-3.2.1-3.2,3.9-2.9,8.1.8,18.1-3.9,18.1-8.4,0-1.8-8.6-4.4-14.2-4.4a24.6,24.6,0,0,0-8.2,1.4c-3.3,1.4-3.5,1.3-6.5-1.8s-3-3.4-1.6-4.6c5-4.1,9.7-19.5,9.9-32,.1-5.1.5-8.5,1.1-8.5s2.8,1.4,4.9,3.1c3.7,3.1,3.7,3.3,2.7,7-1.7,6.2-1.6,6.5,2.4,4.8,4.5-1.9,4.5-1.9,4.5,1.6,0,2.8.2,3,2.8,2.4,4.5-1.1,9.2-3.6,9-4.8a30.93,30.93,0,0,1,.6-5.4c.9-4.8,2.4-5.3,6.3-2.2a9.49,9.49,0,0,0,3.6,2c2.1,0-.6-20.4-3.9-29.5-.5-1.4.7-.7,3.6,2l4.3,4-3.3-5a84.65,84.65,0,0,0-5.3-7.3l-2-2.2h4.4c3.2,0,4-.3,2.9-1a8.4,8.4,0,0,0-4.7-.4c-2.6.5-3.4.2-4.8-1.9s-1.5-3.1-.4-6.9c1.6-5.2,3.7-7.2,5.7-5.2a4.17,4.17,0,0,0,2.1,1.4c.5,0,.7,2.4.5,5.2l-.3,5.3,1.1-5,1-5,4.3-.1c5-.1,11.6-3.1,17.2-7.9l4-3.4,1.7,3.8a52.27,52.27,0,0,0,5.6,8.2c3.3,3.8,3.9,4.2,4.6,2.6.4-1.1-.3-4.9-1.9-9.4-2.4-7.1-2.4-7.5-.6-7,1,.3,2.2.1,2.5-.4,1-1.6,3.3-.9,3.9,1.2a24.56,24.56,0,0,0,4.2,6c2,2.2,3.4,4.1,3.2,4.3s-2.9,1.7-5.9,3.6c-8,4.8-15.2,11.2-14.1,12.3,1.7,1.7,23.1-12.8,23.1-15.7a8.58,8.58,0,0,1,1.8-3.4l1.8-2.3,2.1,2.3,2.1,2.3-1.9,7.5a70.32,70.32,0,0,1-4.9,13.4c-1.7,3.3-2.9,6.1-2.7,6.2s1.8-.1,3.7-.6,3.6-.8,3.8-.5,0,2.3-.7,4.6c-1.8,5.9-.5,6.1,1.9.3,1.1-2.7,3.2-7,4.5-9.5s2.5-5.5,2.5-6.5c.1-1.6.3-1.4,1.5.6,1.9,3.3,1.9,1.2,0-3.3a21,21,0,0,1-1.5-5.3c0-1.6.2-1.5,2.1.1,1.9,1.8,2,2.7,1.5,14.6-.3,7-1,13.9-1.6,15.4a22.14,22.14,0,0,0-1,6v3.4l3.7-1.5c3.5-1.5,3.7-1.5,5.3.6,1,1.4,2.2,1.9,3.3,1.4,1.7-.6,1.8.7,1.5,20.8l-.4,21.5,2.8-.9c4.1-1.5,5.8-5.5,5.8-14,0-6.5-1.6-16.1-3.5-21.1-.9-2.2,1.8-2.3,6.8-.2,8.5,3.5,27.4.5,33-5.3,2.4-2.5,5.3-11.9,4.1-13.2-.3-.2-4.2,1.5-8.7,3.7-10.5,5.3-27.1,10.9-34.2,11.5-2.7.3-3,0-2.7-2.2.2-1.9,0-2.2-.8-1s-1,.6-1-2.2c0-2,.4-3.9.9-4.2,1.4-.9,1.3-17.7-.2-23.4-1.9-7-.7-6.9,9.6,1.1,4.5,3.5,11.8,8.7,16.2,11.6,9.3,6.1,7.3,4.1-4.4-4.2l-8.1-5.8,1.9-3.7a33.71,33.71,0,0,0,2.7-7.7c.4-2.2,1.2-4.3,1.8-4.7.8-.5.7-.8-.1-.8s-1.3-1.7-1.3-5.4a35.76,35.76,0,0,0-1.5-9.6c-.8-2.4-1.4-4.5-1.1-4.7s1.4.1,2.8.6a48.65,48.65,0,0,0,7.9,1.6l5.5.7-.8,6.1a52.36,52.36,0,0,1-1.4,7.7,11.43,11.43,0,0,0-.9,3c-.2.8-.6,3-1,4.9-.8,3.2-.7,3.3,1.6,2.6,5.3-1.7,6.7-2.5,8.5-4.8a16.28,16.28,0,0,1,4.1-3.5c1.8-1,2.4-.9,3.6.8a23.5,23.5,0,0,0,4.2,4.1l2.8,2.3,1.8-2.2,1.7-2.2,4,4,4.1,3.9.9-3.2a50.57,50.57,0,0,0,1.6-8.7c.6-5.8,7.2-28,8.3-28a8.26,8.26,0,0,1,2.7,1.7c1.8,1.5,1.8,1.4-.2-.8-1.2-1.4-2-2.8-1.7-3.1s7.7,1.6,10.3,2.8c.2.1-.4,3.2-1.3,6.8-1.9,8.5-1.9,10,0,9.2,2.7-1,1.7,3.4-1.7,7.6-4.1,5.2-5,12.1-1.9,13.8,1.2.6,2.7.8,3.3.4.8-.5.9,0,.4,1.7a50.47,50.47,0,0,0-1.3,7.2l-.6,4.7,3.9-1.6a31.13,31.13,0,0,0,5.3-2.7c2.4-2,.3,7-3.7,15.8-3,6.5-3.7,9.2-3.7,14.2,0,5.9.2,6.5,3.7,10l3.7,3.7,1.1-2.8a22.77,22.77,0,0,0,1-5.9c0-4.7,3.5-16.5,6.4-22.1,1.4-2.7,2.6-6.3,2.6-8s1.6-5.8,3.5-9.1l3.5-6v4.3c0,7.7-2.1,23.6-4,31-2.4,8.6-2.6,11.2-.8,9.4a4.71,4.71,0,0,1,3-1.2c3.1,0,8.5-5.7,9.8-10.5,2.4-8.6-.5-24.8-5.4-30.5-.8-.8-1.7-3.5-2-6l-.7-4.5,1.8,2.7c1,1.6,2.1,2.8,2.5,2.8,1.4,0,2.1-5.1,1.4-10.5l-.6-5.3,3.6,1c2,.5,4.2.7,4.9.4a4.81,4.81,0,0,1,3.4,1.1c4.9,3.4,8.1-2.2,5.6-9.8a31.46,31.46,0,0,0-3.4-7.1,21.69,21.69,0,0,1-3-6.1c-.7-2-1.7-3.5-2.2-3.2s-.9-1-.9-3c0-8.8-10.7-21-20.7-23.6-3.1-.8-4.3-1.7-4.8-3.6-.9-3.7,1-5.5,4.3-4.1a14.61,14.61,0,0,1,4,2.7c1,1.3,1.2,1.2,1.2-.7a13.42,13.42,0,0,1,1.1-4.5c1-2.3.2-9.7-1.6-14-.6-1.4-.2-1.7,2.9-1.7,3.9,0,6.2,2.5,4.5,5.1-1.4,2.3-1,3.6.6,1.5,1.2-1.6,1.5-1.7,1.5-.4a1.45,1.45,0,0,0,1.7,1.4c1.3-.1,1.9.9,2.3,4a18.27,18.27,0,0,0,2.2,6.6c2.1,3.1,8.8,7.3,8.9,5.5.1-.7,0-8-.1-16.2l-.2-15,3.3-7c4.5-9.6,4.5-14.9-.2-20.3-1.9-2.2-3.7-4.1-4-4.1-1.1-.2-2.9,5-2.9,8.3,0,1.8-.2,3.5-.5,3.8-.7.6-6.1-4.5-6.8-6.4-.3-.7-.6-.4-.7.7a9.5,9.5,0,0,1-2.1,4.5l-2.1,2.5-2.5-3-2.5-3,2.1,4.1c2.3,4.8,1.9,7.6-1.9,12.1a41.27,41.27,0,0,0-4.6,6.2c-1,1.7-2.1,3.1-2.5,3.1-1.3,0-5.8-14.4-4.8-15.1.6-.3,1-1.7.8-3a25.76,25.76,0,0,1,1-6.9c1.6-5.6.8-15.1-2-22.5-2-5.3-6-9.8-9.9-11-1.1-.4-1.8-1-1.6-1.4s-.1-2.9-.7-5.5l-1.3-4.8-11.9,11.8-11.9,11.9-1.7-7.2c-2.3-9.2-4.9-14.2-9.5-18.2-2.8-2.5-4.2-3.1-6.3-2.6l-2.6.6,3-2.5,3-2.4-3-3.2a33.48,33.48,0,0,0-8.4-5.9c-5.3-2.5-7.7-5.1-4.8-5.1.8,0,3.1-1.1,5.1-2.5s4.4-2.5,5.2-2.5,1.2-.5.9-1,1.2-3.1,3.4-5.8c4.9-5.8,9.1-14.6,9.1-19,0-4-1.4-6.8-5.3-10.4l-2.9-2.8-1.1,3-1.1,2.9-2.2-3.2a22.5,22.5,0,0,1-2.8-7.2l-.7-4,7.8-.1a67.42,67.42,0,0,0,11.9-1.2c3.8-1.1,12.4-7.4,12.4-9.1,0-.5-1.8-2.1-4.1-3.7-7.4-5.1-20.4-4.8-30.7.7-6.2,3.4-5.9,3.4-6.5,1.1-.4-1.6-.5-1.6-.6.1,0,1-1.2,3.3-2.6,5.1s-2.5,4-2.5,4.9c0,2.2-.3,2.2-5.1-1l-4.2-2.7.6-7.7c.3-4.2,1-8.5,1.6-9.6,1.2-2.4.3-3.8-1.3-1.9-.7.8-2.7,1.1-5.7.8l-4.6-.4.5-4.3c.4-4.1.3-4.3-2.6-5a18,18,0,0,0-6.5.3c-3.5,1-3.5,1-2.7-1.8a13.64,13.64,0,0,1,3-5,18.63,18.63,0,0,0,3.5-5.4c1.4-3.3,2.3-18.1,1.2-19.3-.4-.3-.7-2.2-.7-4.2a53.28,53.28,0,0,0-1.5-9.5c-.8-3.4-1.6-7.2-1.8-8.6s-.5.4-.6,4c-.2,6.5-1.1,6.4-2.6-.3-.4-2.2-.8-2.5-1.9-1.5s-1.1,1.5-.2,2c.7.5,1,3.7.8,9.5-.2,4.8-.4,8.8-.5,8.9a19.77,19.77,0,0,1-3,.9c-2.3.6-2.7.4-2.7-1.4,0-2.4-3-9.1-4.1-9.1s-4.9,4.2-4.9,5.4c0,.5-1.1-.1-2.4-1.3-2.9-2.7-4.1-9.4-1.6-8.6a10.76,10.76,0,0,0,4.5-.4c1.7-.5,2.2-1,1.3-1-1.9-.1-3.4-4.3-2.3-6.1.9-1.4,12-7,14-7,.8,0,1.5-.3,1.5-.8s-3.3-.7-7.2-.6c-5.3,0-8.7.6-12.2,2.2-6,2.7-6.5,2.7-7.6-.1-.7-1.7-.9-1.8-.9-.5s-.9,1.8-3,1.8c-3.6,0-3.9-.9-3.4-8,.3-4.1,0-6.4-1.5-9.2-1.7-3.3-2.1-3.6-3.2-2.3s-1.5,1.4-3.1-.1a6,6,0,0,1-1.9-3.8,7,7,0,0,0-1.1-3.6c-.7-1.1-.8.2-.3,4.2s.3,5.8-.5,5.8c-.6,0-1.1-1-1.1-2.3s-1.3-6-2.9-10.7c-2.1-6.1-2.6-9-1.9-10.3.9-1.7,1.1-1.6,3.9.4,3.3,2.4,3.4,2.3,4.8-1.1l.9-2.5,1.1,2.8a10.42,10.42,0,0,1,.4,5.5c-.6,2.4-.4,2.5,1,1.4s1.7-1,2.6.7A15.79,15.79,0,0,0,998,390l3,2.1,2-3.3a14,14,0,0,0,2-5.7v-2.4l2,2.6a24.17,24.17,0,0,0,5.6,4.6l3.6,2.1-.7-9.9a139.5,139.5,0,0,1,0-18.3c.7-8.3.7-8.3,4.8-11.5a28.66,28.66,0,0,1,6.8-3.8c3.4-.8,7.3-5,8.8-9.4,1.4-4.2,1.4-12.1,0-18.1-.7-3.1-.7-4.6,0-4.8a.93.93,0,0,0,.5-1.4c-.3-.5.3-1.6,1.5-2.4a4.91,4.91,0,0,0,2.1-3.4c0-1.3,1.5-2.6,4.7-4,5.2-2.3,9.3-5.6,9.3-7.5,0-.7-1.9-2.5-4.1-4.1-3.3-2.3-5.5-2.9-10.8-3.2a44.91,44.91,0,0,0-10.4.6l-3.7,1V286a15.82,15.82,0,0,1,2.8-8.3l2.7-4.3,3,1.9c5.8,3.6,17.4,8.9,18.4,8.3,1.8-1.1-1-5.6-3.8-6.2-1.4-.3-5.7-1.6-9.6-2.8l-7-2.3-.5-4.6c-.3-2.5-1.3-5.4-2.3-6.5a6.45,6.45,0,0,1-1.7-3.1c0-2.3-2.2.1-4.2,4.6-1.6,3.6-2.2,4.2-3.4,3.2-.8-.6-1.4-2.9-1.4-5.1a14.66,14.66,0,0,0-1.2-6.1c-1.5-2.9-6.8-7.8-6.8-6.4,0,.7-1.7-1.9-3.7-5.6a65.84,65.84,0,0,0-7.8-11.5,78.23,78.23,0,0,1-5.4-6.7l-1.3-2,.8,2c3.6,9.7,6.5,18.9,6.2,20.1s-1.1.7-3.4-1.4-3.2-4-3.7-7.6c-.7-5-5.6-15.4-9.1-19.4-1.1-1.2-1.4-2.2-.8-2.2a3.28,3.28,0,0,1,2.1,1.7c.6,1,1.1,1.5,1.1,1.2s2.7.2,6.1,1.2c11.3,3.5,17,2.3,19.7-4.4,1.5-3.4,1.5-3.4-11.1-4l-9.9-.4-4.5-5.2c-5.3-6.1-7.1-6.1-2.3-.1l3.3,4.1-3.9-.7c-5.1-.9-5.4-1.1-5.4-3.9,0-2.6,2.4-5.5,4.6-5.5,1.7,0,1.8-1.2.3-2.7-.8-.8-.8-1.7.1-3.3,1.1-2.1,1-5.4-.5-12.5-.6-2.7-.2-3.4,3.2-6.1,5.4-4.4,9.7-12.5,8.9-16.9-.7-3.4-7.1-10-8.7-8.9-.4.2-1.1,2.6-1.5,5.2-.7,5.3-4.2,15.2-5.2,15.2s-3.6-4.1-4.8-8c-1.2-3.4-1.2-3.4-1.3,2.9-.1,6.1-.2,6.3-2.3,5.7a23.15,23.15,0,0,0-3.5-.6c-1.9,0-1.6-1.8.7-4.7,3.9-5-2.1-7.1-9.5-3.3-2.2,1.1-4,2-4.1,2a32.76,32.76,0,0,1-.9-4.7c-.7-4.8-3.5-11.4-6.2-14.4-1.1-1.3-1.1-2.2-.2-4.2,1-2.2,1.9-2.5,7.3-2.9,12.4-.8,25.6-9.7,25.6-17.2a20.88,20.88,0,0,0-1.3-6.5l-1.3-3.1-6,6.3a146.49,146.49,0,0,1-14,12.4l-8.2,6.2-.6-3.4c-.7-3.5-7.4-10.2-8.7-8.7a33,33,0,0,0-1.7,6.4c-1.3,6.9-6.4,19.9-9.6,24.8-2,3-2.1,3.7-.9,4.9,1.8,1.7,1.7,1.7-3.9,2.3-3.4.4-4.8.2-4.8-.6,0-2.8-4.9-5.9-10-6.4-4.3-.4-5.5-.1-7.5,1.8-2.8,2.7-3.2,5.2-1,7.4a7,7,0,0,1,1.5,1.9c0,.3-2.9.6-6.4.9-5,.3-7.1,1-10,3.2a15,15,0,0,0-4.7,5.4c-1.6,4.1-2.8.8-3-7.9l-.2-7.4-1.7,5c-1.8,5-1.9,5-3.5,0-.2-.8-.8-1.4-1.2-1.4-1.7.4-4.4-1.5-5.9-4l-1.5-2.6.7,2.5c.5,2,.4,2.2-.6,1.3a2.31,2.31,0,0,0-4,1.7c0,3.1-1.5,3.1-3.3.1l-1.6-2.8,4.9-3.4c2.7-1.8,4.7-3.5,4.5-3.7s-2.4,1-4.9,2.7c-4.6,3.2-6.2,3.8-5.1,2.1,1.4-2.3.6-11.1-1.5-15.5-2.6-5.4-11.7-13.9-16.5-15.5-1.9-.6-3.5-1.6-3.5-2.2s-.6-.6-1.5.2c-1.1.9-1.9.9-2.8.2-2.2-1.9-2,7.4.3,12.6,2.5,5.6,1.8,11.4-1.6,13.7-3.9,2.5-5.2-.9-4.9-12.6.2-8.7.4-9.9,2.8-13.1,1.5-1.9,2.7-3.9,2.7-4.5,0-1.8,4.6-3.6,7.1-2.7l2.9.9a5.9,5.9,0,0,1,1.9.9c1.1.7,1.3.5.8-.9a3.17,3.17,0,0,1,.3-3c1.6-1.9,1.4-9.4-.4-14.5-2-5.4-7.1-13.4-10-15.8a26.12,26.12,0,0,1-4.5-5.4c-2.7-4.5-7.6-8.2-9.7-7.4-.8.3-2.5,2.7-3.6,5.3-1.9,4.3-2,5.4-1,11.2a33.81,33.81,0,0,0,4.1,11.3c3.6,5.7,3.6,5.8,1.6,5.8s-10.5,4.2-10.5,5.2c0,.4,2.3.8,5,.8s5,.4,5,.8-1.9,1.8-4.2,2.8c-6.2,2.8-15.3,12.1-16.9,17.2-.7,2.3-1,4.5-.6,4.8,1.6,1.7,8.2,2.1,12.3.9,4.3-1.3,4.5-1.2,3.9.6a17,17,0,0,0-.7,4.9c-.1,4.1-.9,4.4-6.3,2.5a31.18,31.18,0,0,0-7.4-1.5c-2.6,0-2.9-.3-3.5-4.9-.7-5.1-7-19.1-8.7-19.1-.5,0-1.6-1.7-2.4-3.8a41.88,41.88,0,0,0-4.5-7.4c-3.5-4.3-3.8-7.8-1-10.3,1.9-1.7,2-1.7,2,.1,0,1,1.5,4.8,3.2,8.4l3.3,6.5.3-5.9a53.5,53.5,0,0,0-.7-10.8,53.33,53.33,0,0,1-1.1-9.6c0-2.7-.5-5.3-1.1-5.9-1.5-1.5,4.7-3.6,7.1-2.3,2.2,1.2,4.6-1,2.9-2.7-.7-.7-.1-2.5,2-5.9,1.7-2.6,3.1-6,3.1-7.4,0-3-1.9-9-2.8-9-.3,0-3.2,2.8-6.4,6.2L782,66.5l-7.2-7.6-7.3-7.7-6.5-.6a100.4,100.4,0,0,1-15-2.9c-8.4-2.2-8.5-2.2-10.7-6.9a24.59,24.59,0,0,0-3.2-5.3,2.9,2.9,0,0,1-1.1-2.4c0-1.4,1-2,3.9-2.5s5.6-2.1,10.1-6.3c7.5-6.9,10.9-12.5,11.7-19.2l.6-5.1h-4.4A24.44,24.44,0,0,0,744.5,1.9Zm-.6,49.5c5.5,3.8,14.9,7.6,18.4,7.6,3.2,0,4.5-1.1,4.9-4.2.3-2.5.8-2,6,5.7,3.1,4.6,5.4,8.6,5,8.9-.9.5-20.4,6.6-21.3,6.6-.4,0-1.2-2-1.8-4.5-1.4-5.5-2.5-5.2-8.1,2-5.1,6.6-7.5,7.9-6.5,3.5.6-2.6.3-3.1-2-4-2-.8-2.5-1.5-2-2.8a33.23,33.23,0,0,0,2-16c-.4-3.4-.4-6.2-.2-6.2A38.28,38.28,0,0,1,743.9,51.4ZM416.5,62.9c-1.2,1.2-2.6-1.9-1.9-4,.7-2.4.7-2.4,1.5.5A7.08,7.08,0,0,1,416.5,62.9Zm219.5.5c0,1.1-1.9,1.5-2.5.6-.3-.5.1-1,.9-1S636,63.2,636,63.4ZM451.8,71.1c4.7,1,6.2,1.7,5.9,2.9-.2.8-.9,1.4-1.5,1.2s-1.1.1-1,.5a10,10,0,0,1-1.2,3.5c-1.4,2.9-3,3.7-3,1.5,0-.8-.4-.7-1,.3a7.11,7.11,0,0,0-1,3c0,1.3.1,1.3,1,0s1-1.3,1,.1c0,3.2-1.3,2.7-5-2-2.7-3.3-3.9-6-4.2-9-.3-3.8-.2-4.2,1.7-3.7C444.6,69.6,448.3,70.4,451.8,71.1ZM502,73.7c0,.5-1.6,2.9-3.5,5.5L495,84l-3.5-3.9C489.6,78,488,76,488,75.6s1.9-.6,4.3-.7a19.39,19.39,0,0,0,6.2-.9C501.1,72.9,502,72.8,502,73.7Zm-25.4,9.8c2,1.6,2.1,1.9.6,5.6-.8,2.2-1.9,3.9-2.3,3.9s-1.3-1.6-1.9-3.5c-1.9-5.6-2.9-4-1.4,2.2,1.6,6.9,1.7,7.3.5,7.3-.5,0-1.1-1.4-1.5-3.1-.4-1.9-1-2.8-1.7-2.3s-1-.3-.5-2.7c.3-1.9.9-5.6,1.3-8.2l.6-4.8,2.1,1.9C473.5,80.9,475.5,82.5,476.6,83.5Zm51-2.4a24.18,24.18,0,0,0,8.1,4.8c5,1.7,6.9,3.8,3,3.3-1.2-.1-4.4-.4-7.2-.6-8.6-.7-10.8-1.6-10-4,.4-1.1.9-3.1,1.2-4.4C523.4,77.3,523.8,77.4,527.6,81.1ZM411.5,90.8l.6,6.7-2.6-3.8c-2.5-3.6-2.6-4-1.4-9.5,1.1-5.2,1.3-5.5,2-2.9A93.12,93.12,0,0,1,411.5,90.8Zm344.7-7.5c-1,1.9-1.7,5.7-1.7,9.3a28.1,28.1,0,0,1-1.9,10.2c-2,4.5-2.3,4.7-4.6,3.2-1.2-.7-1.2-1.2.3-2.8,1.7-1.9,1.7-2-.6-3.9s-4.7-8.3-3-8.3c1.4,0,10.3-9.2,10.3-10.6,0-.7.6-1.1,1.4-.8C757.6,80,757.5,80.7,756.2,83.3ZM500.9,84.7c-1,1.1-1,1.4-.1.9s1.2,0,1.2,1.8-.8,2.7-3.5,3.6a13.67,13.67,0,0,0-5,2.7c-1.2,1.2-1.9,1.3-3,.3-2.7-2.3-1.7-3.6,2.5-3.2s4.8-.4,3-3.8c-1.1-2.1.9-3.9,4.4-4C502,83,502.1,83.2,500.9,84.7ZM776,86a3.07,3.07,0,0,1-1,2.5c-.6.4-1-.7-1-2.5s.4-2.9,1-2.5A3.07,3.07,0,0,1,776,86ZM443,88.5c0,1.3-2.9,2.9-3.7,2.1a5.84,5.84,0,0,1,.3-3c.5-2.1.9-2.4,2-1.5A3.59,3.59,0,0,1,443,88.5Zm282.6,3.4c-1.7,1.1-3.4,1.7-3.9,1.4s.3-1.2,1.9-1.9C727.9,89.5,728.9,89.8,725.6,91.9Zm-36.8.8a13.39,13.39,0,0,1-4,0c-1.3-.2-.5-.4,1.7-.4S689.7,92.4,688.8,92.7Zm-219.2,8.9c-.5,2.4-1.2,3.4-2.6,3.4a15.87,15.87,0,0,0-3.7.6c-1.5.6-1.5.4.4-1.4a18,18,0,0,0,3.3-5.8c1.1-3.1,1.4-3.4,2.2-2C469.8,97.4,469.9,99.7,469.6,101.6Zm265.1-4.5c2,2-1.7,6.9-5.1,6.9h-2.9l2.2-2.4c1.7-1.8,1.9-2.6,1-3.2s-.8-.9.7-1.5C733.2,95.8,733.5,95.9,734.7,97.1ZM335.5,98c.3.5.2,1-.4,1a2.34,2.34,0,0,1-1.6-1c-.3-.6-.2-1,.4-1A2,2,0,0,1,335.5,98ZM375,98c0,.5-.7,1-1.5,1s-1.5-.5-1.5-1,.7-1,1.5-1S375,97.4,375,98Zm62,.4c0,.3-.4.8-1,1.1s-1,.1-1-.4a1.1,1.1,0,0,1,1-1.1C436.6,98,437,98.2,437,98.4Zm46.7,3.8c-1,3.8-1.1,4-2,2-.8-1.7-.6-2.7.8-4.2a16.24,16.24,0,0,1,2-2C484.7,98,484.3,99.9,483.7,102.2Zm142.9-.3c0,1.1-.3,1.8-.7,1.5s-.9.2-1.2.8c-.3,1-.7,1-1.7.1a2.5,2.5,0,0,1,1.8-4.3A1.71,1.71,0,0,1,626.6,101.9Zm-21.7,1.7c1.7.4,3.1,1.2,3.1,1.8,0,1.6-10.2,4.7-11.7,3.5-.8-.7-2.4.7-5.5,4.7l-4.3,5.7-.7-4.4c-.4-2.4-1-5.8-1.3-7.6-.5-2.9-.3-3.2,2.2-3.6C591.4,103,601.6,103,604.9,103.6ZM614,105c0,.5-.9,1-2,1s-2-.5-2-1,.9-1,2-1S614,104.4,614,105Zm3,1a1,1,0,0,1-1,1,1.08,1.08,0,0,1-1-1,1,1,0,0,1,1-1A.94.94,0,0,1,617,106Zm140.2,5.5a17.55,17.55,0,0,0,1.3,7.1c.9,2.5,1.5,4.8,1.2,5.1-1.1,1-4.9-.9-5.7-3s-.9-2.1-.9-.2c-.1,1.7-.4,1.5-1.6-.9-1.4-2.7-1.4-2.9,1-4.8,1.4-1.1,2.5-2.8,2.5-3.9s.6-1.9,1.4-1.9S757.6,109.8,757.2,111.5ZM405,122.8c0,.4-1.3.9-3,1s-3-.3-3-.9.9-.9,2-.6,2,.1,2-.5.5-.6,1-.3A1.75,1.75,0,0,1,405,122.8Zm190.5,3.4c-.3.8-2,2.5-3.7,3.8-2.4,1.8-3.2,2-3.9.9s.1-1.9,2.6-3.1c1.8-1,3.7-2.3,4-2.9C595.5,123.4,596.2,124.4,595.5,126.2Zm-195-.2c.3.5.1,1-.4,1a1.1,1.1,0,0,1-1.1-1c0-.6.2-1,.4-1S400.2,125.4,400.5,126Zm-45.1,2.9c-.3.9-.9,2.4-1.1,3.3-.8,2.9-2.1,2.1-2.5-1.7-.4-3.5.5-4.6,3-3.7C355.6,127.1,355.8,127.9,355.4,128.9ZM759.2,133c-.5,3.6-.7,3.5-1.6-.3-.4-1.9-.3-2.7.7-2.7S759.5,130.9,759.2,133Zm17.7,11.5c2.9,4.9,2.7,5.9-1,5.1-3-.6-3.1-.5-2.7,2.2.2,1.6-.2,3.4-.9,4-1,1-1.7.3-3.4-3a39.1,39.1,0,0,0-5.6-7.9c-2.3-2.5-3.1-3.9-2.3-4.4.6-.4,2,.1,3.1,1,1.8,1.7,2,1.6,4.4-3.9a45.33,45.33,0,0,0,2.6-6.9c0-.7.9,1.4,1.9,4.5A49.12,49.12,0,0,0,776.9,144.5Zm-24.5-9.8c-.4,2.1-.8,3.9-.9,4.1-.3.3-2.8-1.1-6.3-3.4-.2-.1.1-1.2.8-2.3.7-1.4,2.1-2.1,4.1-2.1C753,131,753.1,131.1,752.4,134.7ZM479.5,133c.3.5.1,1-.4,1a1.1,1.1,0,0,1-1.1-1c0-.6.2-1,.4-1S479.2,132.4,479.5,133Zm-117.8,4.6c.4,1.3-5.7,10.6-7.4,11.2-.9.3-1.3-1.2-1.3-5.1,0-5.1.2-5.6,2.8-6.5C359,135.9,361.2,136.1,361.7,137.6Zm-70.9,3.6a2.65,2.65,0,0,1-1.9,1.5c-7.5,1-9,1.5-8.5,3,2,5.2,1.9,6.3-.8,6.3-2.4,0-2.6-.3-2.6-4.4a26.26,26.26,0,0,0-.6-6c-.5-1.4.5-1.6,7.1-1.6C289.2,140,291.1,140.3,290.8,141.2Zm11.8-.2c.8,0,1.4,1,1.4,2.5,0,2.9.2,2.8-3.9,1.4a8.3,8.3,0,0,1-4.2-3.2c-1.1-1.9-.9-2,2.1-1.3A44.71,44.71,0,0,0,302.6,141Zm98.4,1c0,.5-1.5,1-3.2.9-3.1-.1-3.2-.1-.8-.9C400.5,140.9,401,140.9,401,142Zm345,3c1.3.9,1.2,1.2-.4,2.5-2.3,1.7-3.6,1.9-3.6.5a1,1,0,0,1,1.1-1c.6,0,.9-.7.5-1.5C743,143.8,743.9,143.6,746,145Zm4.2,5c-.3,3.3-.8,3.5-3.8,2l-2.6-1.4,2.3-1.9C748.9,146.5,750.6,147,750.2,150Zm71.2,4.9c-.3.3-1.1-.2-2-1-1.2-1.3-1.3-2.1-.3-4.5l1.2-2.9.8,4C821.5,152.7,821.6,154.7,821.4,154.9Zm-500.8,1.8a11.47,11.47,0,0,0-.6,3.4c0,3-1.5,2.2-2.8-1.5a15.91,15.91,0,0,0-3.2-5.1c-3.4-3.1-2.2-3.5,2.6-.8C319.6,154.4,320.9,155.7,320.6,156.7Zm21.4-2.1c-1.6,1.8-3.1,1.8-2.5-.1,1.7-5.3,1.5-5.2,2.6-3.2A2.56,2.56,0,0,1,342,154.6Zm592,1.3c-.6,1.6-.9,3.4-.6,4,1.5,2.3-1.6,2-3.9-.5s-2.4-2.8-.9-4.5,5.2-2.9,6.3-2.2C935.1,152.8,934.7,154.3,934,155.9Zm-586.6,7.8c-1.5,2.4-3,2.7-3.8.7a2.71,2.71,0,0,1,1.1-3C347,159.7,348.9,161.3,347.4,163.7Zm495.2-1c-.7.7-2.6-.7-2.6-1.9,0-.6.6-.6,1.5.2S842.8,162.5,842.6,162.7ZM289,162.5a1.44,1.44,0,0,1-1.2,1.5c-1,0-.9.3.1.9s1.1,1.8.6,4c-.7,3.3-2.5,4.3-2.5,1.3a9.22,9.22,0,0,0-2-4.2c-1.9-2.5-1.9-2.5.3-3.7C287.3,160.6,289,160.7,289,162.5Zm31,1.5c1,.7,1.2,1.2.4,1.7a12.37,12.37,0,0,0-2.3,3.1c-1.2,2.2-1.3,2.2-3.6.5-1.3-1-2.5-2.6-2.5-3.7,0-1.4.5-1.7,2.5-1.2,1.4.4,2.5.2,2.5-.4C317,162.7,318.1,162.7,320,164Zm54,1.7a4.84,4.84,0,0,1-1,2.3c-1.1,1.8-2.5.7-1.7-1.5C371.9,165,374,164.4,374,165.7Zm589,2.8c0,.8-.2,1.5-.4,1.5s-.6-.7-1-1.5-.1-1.5.4-1.5S963,167.7,963,168.5Zm-110,5.9c0,.4-.9.2-2-.4a4,4,0,0,1-2-3.2c0-2,.1-1.9,2,.5A12.58,12.58,0,0,1,853,174.4Zm55,2.1,3.8,2a19.33,19.33,0,0,1-1.3,3.8,23.79,23.79,0,0,0-1.5,7.4c0,5.7-3,8.3-9.7,8.3-4.9,0-7-1.2-4-2.3.9-.4.9-.7,0-1.4-1.2-.9-4.8-11.2-4.1-11.7.2-.1,1.7-1.2,3.5-2.5a20.12,20.12,0,0,0,5-5.1c1.5-2.5,1.9-2.8,3.3-1.6A34.91,34.91,0,0,0,908,176.5Zm-653.1,3.7c2.7,1.8,6.3,4.1,8.1,5.1,3.2,1.7,3.2,1.9,2.5,6.5-1,6.3-1.1,12.4-.2,14.2.5,1.1-.2,2.1-2.3,3.3-3.5,2.1-5.5,5.6-6.3,11.1-.6,4-.4,4.1,4.4,2.2,1.4-.6,1.5-.1.8,4.6a22.58,22.58,0,0,0-.3,7.1,5,5,0,0,1-1.2,4c-1,1.2-.5.9,1.3-.7l3.1-2.8.5,2.3c.4,2.2.4,2.2.6-.3.1-3.4,1.7-4.5,2.6-1.8a10.61,10.61,0,0,0,3.3,4.1c1.8,1.5,2.3,2.3,1.4,2.6s-1,.8-.1,1.9.6,1.6-1.5,2.4c-3.5,1.3-7.6,5.8-7.6,8.3,0,1.6-.6,1.9-3.4,1.5s-3.4,0-3.3,1.3c.1,1.9,5.3,3.4,8.1,2.3,1.3-.5,1.6.1,1.6,3.5s-.3,4.1-2.2,4.1a18.36,18.36,0,0,0-5.4,1.2c-2.9,1-3.8.8-10-2.7-5.5-3.1-14.1-8.4-16.3-10.1-.2-.2,1.1-2,2.9-4,6.8-7.8,10.3-18.8,8.4-26.1-.5-1.8-1.1-2.1-3.5-1.6l-2.9.5,3.2-7.6,3.1-7.7,2.7,4.9c3.9,6.7,5.7,8,7.5,5.6,1.4-1.9,3.8-11.3,3.7-14.9-.2-9.6-3.9-21.3-7.6-24.4-1.5-1.3-2.2-3.1-1.1-3.1A48.27,48.27,0,0,1,254.9,180.2Zm695.2,8.5c-.9,2.1-1.4,2.3-2.6,1.3-1-.8-1.3-2.2-.9-3.9,1.2-5.5,1.5-5.7,3.1-2.7C950.9,185.6,951,186.8,950.1,188.7ZM605.5,183c.3.5.1,1-.4,1a1.1,1.1,0,0,1-1.1-1c0-.6.2-1,.4-1S605.2,182.4,605.5,183Zm-257.4,8.2c3.1,3.5,3.9,6.1,1.4,5.2-1.4-.6-1.9-1.7-1.6-3.6,0-.3-1.3-.9-2.9-1.3s-3-1.3-3-2.1C342,187,345,187.9,348.1,191.2Zm6.7,12.9c-.8,2.5-3.4,4.9-5.1,4.9-.3,0-.7-1.3-1-3a47.82,47.82,0,0,0-2.7-7.2c-1.1-2.3-2-4.3-2-4.4s2.7,1.3,5.9,3.2C355.7,201.1,355.8,201.2,354.8,204.1Zm1.5-6.6c-.4,1.5-3.6,1.2-4.1-.3-.3-.9.3-1.3,1.9-1C355.4,196.3,356.4,196.9,356.3,197.5Zm557.5,1.4a2.88,2.88,0,0,1,1,2.9c-.3,2.1-.4,2.1-2.7.3C908.9,199.6,910.5,196.7,913.8,198.9Zm-18.1,14.3c-.3.7-.5.2-.5-1.2s.2-1.9.5-1.3A5.28,5.28,0,0,1,895.7,213.2Zm19.6,8.8c.3,1.1.1,2-.4,2s-1.3-.9-1.9-2c-.8-1.6-.8-2,.3-2C914.1,220,915,220.9,915.3,222Zm62,4.4c1.5,2.2,1.5,2.5.1,3-2.2.9-3.4-.1-3.4-3C974,223.3,975.3,223.3,977.3,226.4Zm-88.5,3.4c.2.7-.3,1.2-1.2,1.2a1.58,1.58,0,0,1-1.6-1.6C886,227.7,888.2,228,888.8,229.8Zm61.9,1.4c-.3.7-.5.2-.5-1.2s.2-1.9.5-1.3A5.28,5.28,0,0,1,950.7,231.2Zm42.5,18.1q-.15.75.6.3c.5-.3,2.6.9,4.6,2.6,2.5,2,4.8,3.1,6.8,3,2.8-.1,2.9.1,2.3,3-1.3,5.7-4.4,13.4-4.4,11-.1-2.6-.3-2.7-4.1-.7-2.9,1.5-3,1.5-4.7-1.7-.9-1.8-1.6-3.6-1.5-4.1s-.2-.7-.8-.7-1-.9-1-1.9a3.57,3.57,0,0,0-1.1-2.7c-.8-.4-.9.3-.4,2.6,1.1,5.1-.3,15.7-2.2,16.5a2.3,2.3,0,0,1-2.5-.7c-.4-.7-.8-.9-.8-.4s-.5.5-1.1-.1c-.8-.8-.7-2.3.6-5.7,2.1-5.4,1.7-14.3-.9-21.8-1.5-4.3-1.5-4.8.1-7.6l1.7-2.9,4.5,5.6C991.4,246,993.4,248.9,993.2,249.3ZM946,238.4c0,.3-.4.8-1,1.1s-1,.1-1-.4a1.1,1.1,0,0,1,1-1.1C945.6,238,946,238.2,946,238.4Zm-3.2,5.1c-.3.3-.9-.2-1.2-1.2-.6-1.4-.5-1.5.5-.6C942.8,242.4,943.1,243.2,942.8,243.5Zm3.2,6.1c0,.8-.4,1.2-1,.9a2.82,2.82,0,0,1-1-2.1c0-.8.5-1.2,1-.9A2.52,2.52,0,0,1,946,249.6Zm-88.6,1.7,2,2.7-3.4,3c-3.7,3.1-5.2,3.2-12.7.9-3.4-1.1-4-2.7-2.2-6,1-1.9,1-1.9,3.6.1,3.5,2.7,4.6,2.5,6.7-1.1C853.4,247.5,854.6,247.5,857.4,251.3ZM221,250c0,.5-.2,1-.4,1s-.8-.5-1.1-1-.1-1,.4-1A1,1,0,0,1,221,250Zm677,1a1,1,0,0,1-1,1,1.08,1.08,0,0,1-1-1,1,1,0,0,1,1-1A.94.94,0,0,1,898,251Zm4.4,5.5c.6,2.8.5,2.9-.8,1.2a4.1,4.1,0,0,1-.9-3.3C901.4,252.6,901.6,252.8,902.4,256.5Zm-72.4,0c-.7.9-1.5,1.3-1.8,1s.1-1.1.8-2,1.5-1.3,1.8-1S830.7,255.6,830,256.5Zm2.5,8.1c-.3,1.8-1.2,3.5-2,3.7-1.1.5-1.3-.4-1-4.2a20.24,20.24,0,0,1,1.6-7.2c1.4-2.4,1.4-2.4,1.7,1A24.94,24.94,0,0,1,832.5,264.6Zm30.3-5.5c.2,2.3.2,2.3-1.3.5-1.8-2.4-2-3.9-.2-3.4A4.16,4.16,0,0,1,862.8,259.1Zm-43.8-.7a6,6,0,0,1-1.5,1.6c-1.2,1-1.5,1-1.5-.4a1.56,1.56,0,0,1,1.5-1.6C818.3,258,819,258.2,819,258.4Zm26.1,1.8c4.5,2.5,4.6,2.9,1.8,4.6-1.8,1.1-2.4,1.1-3.9-.3s-3.4-6.5-2.2-6.5A33.75,33.75,0,0,1,845.1,260.2Zm-620.4,2.5c-.3,1-.5.4-.5-1.2s.2-2.4.5-1.8A7.56,7.56,0,0,1,224.7,262.7Zm12.1,4.4c-1.5,1-2.3.2-3.3-3.1l-.7-2.5,2.6,2.4C237.3,265.7,237.7,266.6,236.8,267.1ZM950,263c-1.8,1.2-3,1.3-3,.2,0-.4,1-.9,2.2-.9C951,262.1,951.2,262.3,950,263Zm-110.4,4.2c-.5,2.2-6.6,6.6-6.6,4.8,0-.5.9-1.4,2-2a8.15,8.15,0,0,0,3.1-3.7C839.2,263.2,840.5,263.9,839.6,267.2Zm-47.1,7.6a34.58,34.58,0,0,0-1.1,3.7,6.3,6.3,0,0,1-3,3.5c-2.8,1.5-3,3.6-.9,6.7a4.39,4.39,0,0,1,.7,4.2c-.7,1.9-1.2,1.5-4.5-3.6-3.7-5.5-3.8-5.8-2-7.3,2.7-2.2,4.6-7.4,4.1-11.4l-.4-3.3,3.8,3C791.5,272.1,792.8,274,792.5,274.8Zm71.3-3.6c-1.5.9-6.8,1.1-6.8.2,0-1.9,3.5-3.1,5.7-2.1C864.4,270.1,864.7,270.6,863.8,271.2ZM203.5,273a145.19,145.19,0,0,1,10.7,10.2c6.5,6.8,6.7,7.2,5.1,9-2.2,2.4-3.6,1.8-4.4-1.8l-.7-2.9-.1,2.7L214,293l-3.4-1.7a10.38,10.38,0,0,1-5.1-5.4,25.42,25.42,0,0,0-4.6-6.5l-2.9-2.8-2.5,2.4-2.4,2.3.9-2.9c.5-1.6,1.2-4.1,1.5-5.7C196.2,269.1,198.7,269.2,203.5,273Zm39.1,2.3c6.6,4.9,10.3,8.7,8.6,8.7-.7,0-1.2-.4-1.2-.8s-.8-.8-1.7-.9c-2.9-.2-9.1-2.8-11.2-4.7-1.9-1.7-2.6-6.6-1-6.6C236.5,271,239.4,273,242.6,275.3ZM770.8,273c1.3,2.1.9,4-.8,4-.5,0-1.1-.8-1.3-1.8s-.5-.7-.6,1c-.2,4.8-2.1,4.2-2.1-.6,0-3.7.3-4.6,1.8-4.6A4.38,4.38,0,0,1,770.8,273Zm244.7,1.2c-1.3,5.9-15.1,23-16.7,20.5-1.8-2.8-.7-5.5,3.1-8a45.76,45.76,0,0,0,12-13.5C1015.6,270,1016.3,270.5,1015.5,274.2Zm-750.8,2.4a4.25,4.25,0,0,1-.7,2.4c-1.2,2-3.5-.2-2.6-2.5A1.71,1.71,0,0,1,264.7,276.6ZM237,279.1a.92.92,0,0,1-1,.9c-.5,0-1-.7-1-1.6s.5-1.2,1-.9A1.9,1.9,0,0,1,237,279.1Zm23-.1a1,1,0,0,1-1,1,1.08,1.08,0,0,1-1-1,1,1,0,0,1,1-1A.94.94,0,0,1,260,279Zm33.8,2.5c-.6,1.4-1.3,2.3-1.6,2.1-.7-.7.9-4.6,1.8-4.6C294.5,279,294.4,280.1,293.8,281.5Zm7.9-.3c-.3.8-.6.5-.6-.6s.2-1.7.5-1.3A2,2,0,0,1,301.7,281.2Zm-77.7.3c0,.8-.4,1.5-1,1.5s-.7-.7-.4-1.5.8-1.5,1-1.5S224,280.7,224,281.5Zm665.4,2.3c-.8,3.9-2,4.1-2.8.6-.8-3.1.1-4.5,1.4-2.4.8,1.2,1,1.2,1-.4,0-1.1.2-1.7.5-1.4S889.7,282.1,889.4,283.8Zm2.3,2.4c-1.5.9-1.9.4-1.1-1.6.5-1.4.9-1.5,1.5-.5A1.45,1.45,0,0,1,891.7,286.2Zm17.1,0a3.12,3.12,0,0,1-1.6,1.6c-.7.2-1-.2-.6-1.2C907.3,284.8,909.4,284.4,908.8,286.2Zm-718.7,7-.4,6.3-1-4.8c-.7-3.5-.6-5.1.3-6.2a11.39,11.39,0,0,1,1.4-1.5S190.3,289.8,190.1,293.2Zm587.8.4c1.3,7.3.7,12.4-1.4,12.4-.8,0-1.6-1.4-1.9-3.3-1.1-7.2-1.5-14.4-.9-15C775.6,285.7,776.9,287.5,777.9,293.6ZM282,290.2c0,.5-.6.8-1.2.7-1.9-.4-9.8,2.3-9.8,3.3a.92.92,0,0,1-1,.8c-.5,0-1-1.1-1-2.4,0-1.9.6-2.5,2.8-2.8C277.2,289.1,282,289.3,282,290.2Zm8.7-.6a2,2,0,0,1-1.9.1c-.8-.3-.5-.6.6-.6S291.1,289.3,290.7,289.6Zm476.9,8.6c-.4,3.5-1,6.6-1.4,7s-2.9-.7-5.5-2.4c-4-2.6-4.8-3.6-4.5-5.7s1.2-2.9,3.8-3.8a21.27,21.27,0,0,1,5.9-1.2C768.2,292,768.2,292.1,767.6,298.2Zm245.1-4c-.3.8-.6.5-.6-.6s.2-1.7.5-1.3A2,2,0,0,1,1012.7,294.2Zm-786.8,1.7,1.5,2.4-3.2-1.7c-1.8-.9-3-2.1-2.6-2.7C222.4,292.5,224.1,293.2,225.9,295.9Zm785.1-2.2a56.87,56.87,0,0,1-3.7,6.4c-2.3,3.5-4.4,5.7-5.5,5.6-.9-.1-1.6-.4-1.6-.7a12,12,0,0,0-.6-3.2,4.22,4.22,0,0,1,1.2-4.8C1003.2,294.4,1011,291.8,1011,293.7Zm-769.6,7.5c-.4.7-.2.8.5.4,1.4-.9,4.3,1.2,3.5,2.5a.92.92,0,0,1-1.3.4c-.5-.2-.6.7-.3,2,.3,1.8,0,2.5-1.2,2.5-1,0-1.5-.8-1.4-2.3a25.79,25.79,0,0,0-.7-5.1c-.6-2.1-.5-2.7.4-2.2A1.44,1.44,0,0,1,241.4,301.2Zm29.6,1.9c0,.6-.4.7-1,.4a2.34,2.34,0,0,1-1-1.6c0-.6.5-.7,1-.4A2,2,0,0,1,271,303.1Zm537.9,4.2c.1.5-.3.5-.9.2a3.47,3.47,0,0,1-.9-2.8c0-2.1.1-2.1.9-.2A10.59,10.59,0,0,1,808.9,307.3ZM798,305.5a1.56,1.56,0,0,1-1.6,1.5c-1.4,0-1.4-.3-.4-1.5a6,6,0,0,1,1.6-1.5C797.8,304,798,304.7,798,305.5Zm-604,3.4c0,.5,1.2,2.3,2.6,4,2.3,2.8,2.5,5.1.5,5.1-.5,0-1.8-2.3-2.9-5s-1.7-5-1.1-5A.9.9,0,0,1,194,308.9ZM820,312c0,1.1-.4,2-1,2s-1-.9-1-2,.5-2,1-2S820,310.9,820,312Zm-546.7,3.4c-1,1.3-2,2-2.1,1.5-.5-1.2,1.7-3.9,3-3.9C274.7,313,274.3,314.1,273.3,315.4Zm-85.7,6.1c1.6,3.3,1.8,4.5.9,4.5a2.3,2.3,0,0,0-1.8,1.2c-.3,1-.7,1-2-.1-.9-.7-1.5-1.7-1.2-2.1a1.1,1.1,0,0,0-.5-1.5c-.5-.3-1,.2-1.1,1.2,0,1.3-.2,1.4-.6.4-.6-1.4,2.5-8.1,3.6-8.1C185.2,317,186.5,319.1,187.6,321.5Zm622.8-.9c.4,2,.3,4.1-.3,4.8s-1.7,4.5-2.6,8.6-2.1,7.9-2.5,8.3-1.3-.7-1.9-2.6-1.8-4.1-2.6-4.7c-1.7-1.4-1.1-3.2,2.4-6.9a22,22,0,0,0,4-7C808.4,316.1,809.6,315.9,810.4,320.6Zm-635.8-1.1c.8,2.1-.6,4.1-1.7,2.4-1.2-1.9-1.1-3.9.1-3.9C173.6,318,174.3,318.7,174.6,319.5ZM793,318.3a27,27,0,0,1-4.1,3.6c-3.7,3.1-4.2,3.2-5.8,1.7A6.13,6.13,0,0,0,780,322c-2.4,0-.1-1.3,4.7-2.6S793,317.7,793,318.3Zm19.7,3.4c-.3,1-.5.4-.5-1.2s.2-2.4.5-1.8A7.56,7.56,0,0,1,812.7,321.7ZM654,319.4c0,.3-.4.8-1,1.1s-1,.1-1-.4a1.1,1.1,0,0,1,1-1.1C653.6,319,654,319.2,654,319.4Zm86.9,1.7,2.4,2-2.9,3-2.8,2.9-2.3-3.7-2.2-3.8,2.2-1.2C738.1,318.7,738.1,318.7,740.9,321.1Zm81.2,1.2c-1,.9-1.1.8-.5-.6.3-1,.9-1.5,1.2-1.2S822.8,321.6,822.1,322.3Zm6.9,3.6c0,.7-5.3,4.1-6.4,4.1s-.7-2.7.5-5.4c1.1-2.3,1.3-2.4,3.5-.9C827.9,324.5,829,325.5,829,325.9ZM198.9,327c.6,0,1.1.7,1.1,1.6,0,1.4-.2,1.4-2.2,0-2.7-1.9-4.1-2.1-3.3-.4.4.7-.1.4-.9-.6-2.8-3.4-2-5,1.3-2.7A10.86,10.86,0,0,0,198.9,327Zm633.9,2c-1.1,1.8-7.5,6-9.3,6-.3,0-.5-.7-.5-1.5,0-1.9,9.2-8.7,10.3-7.6C833.8,326.4,833.6,327.8,832.8,329Zm-641.3,4c1,1.1,1.3,2,.7,2s-1.6-.9-2.2-2-.9-2-.7-2A9.54,9.54,0,0,1,191.5,333Zm45.8,1.2a36.13,36.13,0,0,1-1.4,5.3c-.6,1.7-.8,1.5-.9-1a10.48,10.48,0,0,0-.9-4.5c-1.2-1.8-.5-3,1.9-3C237.7,331,237.9,331.5,237.3,334.2ZM799,331.4c0,.3-.4.8-1,1.1s-1,.1-1-.4a1.1,1.1,0,0,1,1-1.1C798.6,331,799,331.2,799,331.4Zm37,.3c-.1,2.1-3,4.3-5.5,4.3h-2.8l3.4-2.4C834.7,331,836,330.5,836,331.7ZM280.5,335c.3.5-.1,1-.9,1a2.82,2.82,0,0,1-2.1-1c-.3-.6.1-1,.9-1A2.52,2.52,0,0,1,280.5,335ZM839,335a1.1,1.1,0,0,1-1.1,1c-.5,0-.7-.5-.4-1s.8-1,1.1-1S839,334.4,839,335Zm176,3a3.07,3.07,0,0,1-1,2.5c-.6.4-1-.7-1-2.5s.4-2.9,1-2.5A3.07,3.07,0,0,1,1015,338Zm-735.5-.1a1.13,1.13,0,0,1-.4,1.5c-.5.3-1.1-.1-1.5-.9C277,336.9,278.5,336.4,279.5,337.9ZM827,338c-1.3.8-1.2,1,.3,1,2.2,0,2.1.6-.2,3.6-1.6,2-2,2.1-2.5.8a15.32,15.32,0,0,1-.6-4c0-1.8.5-2.4,2.3-2.4S828.2,337.2,827,338Zm184,2.7c0,.7-.4,1.3-1,1.3s-1-1.2-1-2.8c0-2.1.2-2.4,1-1.2A6.93,6.93,0,0,1,1011,340.7Zm-760.1,1.5c.1.5-.3.8-.9.8s-1-1.2-.9-2.8c0-2.4.1-2.5.9-.7A10.22,10.22,0,0,1,250.9,342.2Zm-51.1-1.6c2,.6,5.9,7,4.9,8-.5.6-10.7-6.8-10.7-7.7S196.5,339.8,199.8,340.6ZM833,341c0,.5-.2,1-.4,1s-.8-.5-1.1-1-.1-1,.4-1A1,1,0,0,1,833,341Zm8,3.5c0,1.4-.6,2.5-1.3,2.5s-1.4-1.1-1.5-2.5c-.1-1.6.3-2.5,1.3-2.5S841,343,841,344.5Zm155.8,0c-.3.3-.9-.2-1.2-1.2-.6-1.4-.5-1.5.5-.6C996.8,343.4,997.1,344.2,996.8,344.5Zm-794.3,8.6c1.1,1.9,2.1,3.7,2.3,4s-.8.9-2.2,1.3-3.1.9-4,1.2c-1.2.5-1.6-.1-1.6-2.4,0-1.7.5-3.2,1.1-3.4s.5-1.4-.5-3.3A13.57,13.57,0,0,1,196,346C196.1,344.2,199.5,348,202.5,353.1Zm49.8-6.7c.3.7-.1,2.3-1,3.5-1.1,1.7-2.1,2.1-4.2,1.6-1.9-.4-3.2-.1-4.1,1a4.12,4.12,0,0,1-2.3,1.5c-.6,0,0-1.1,1.3-2.5a7.75,7.75,0,0,1,5.2-2.5c2.1,0,2.8-.5,2.8-2C250,344.7,251.5,344.3,252.3,346.4ZM797,347a1,1,0,0,1-1,1,1.08,1.08,0,0,1-1-1,1,1,0,0,1,1-1A.94.94,0,0,1,797,347Zm73,.3a8.92,8.92,0,0,1-1.9,2.1c-1.9,1.7-2,1.7-3.1-.3s-.8-2.1,2-2.1A10,10,0,0,1,870,347.3Zm-637,3.1a4.16,4.16,0,0,1-1.5,2.6c-1,.9-1.5.9-1.5.1a1,1,0,0,1,.9-1.1c.5,0,.7-1,.3-2.2-.3-1.4-.2-1.9.6-1.4A2.54,2.54,0,0,1,233,350.4Zm3.4-.9c.3.8.1,1.5-.3,1.5s-1.1-.7-1.5-1.5-.1-1.5.3-1.5S236,348.7,236.4,349.5ZM804.5,352c-.5,1.6-1,1.9-1.8,1.1s-.6-1.5.3-2.6C804.7,348.5,805.4,349.2,804.5,352Zm64.9-.6c-.6,1.6-2.4,2.3-2.4.8,0-1,2.2-3.3,2.7-2.8C869.9,349.6,869.8,350.5,869.4,351.4Zm-116.9,3.3c-1.8,4.2-2.5,5.2-2.5,3.4,0-1.4,2.8-7.1,3.5-7.1C753.8,351,753.3,352.7,752.5,354.7ZM995,352a1.1,1.1,0,0,1-1.1,1c-.5,0-.7-.5-.4-1s.8-1,1.1-1S995,351.4,995,352Zm-775,2.1c0,.6-.4.7-1,.4a2.34,2.34,0,0,1-1-1.6c0-.6.5-.7,1-.4A2,2,0,0,1,220,354.1Zm512,4.4c0,.3-.9.1-2-.5a3.71,3.71,0,0,1-2-2.7c0-1.4.3-1.3,2,.5A9.86,9.86,0,0,1,732,358.5Zm-495.7-.1c.4,1.1.1,1.3-1,.9s-1.4-.2-.9.5,0,1.2-1.5,1.2c-2.1,0-2.1,0,.2-2C236,356.6,235.7,356.7,236.3,358.4ZM208.5,360c2.3,2.5,1.4,3.5-1.7,2-2.2-1.1-2.2-1-.4.4a4.49,4.49,0,0,0,3.6,1.1,4.44,4.44,0,0,1,3.4.8c1.4,1,1.5,1.8.7,4-1.2,3.2-4.1,3.6-4.1.6,0-1.1-.4-1.8-1-1.4a1.58,1.58,0,0,0-.3,2c.7,1.9-.1,1.9-3.5.1-3-1.6-8.8-7.3-8.1-8,.4-.5,7.6-3.2,9-3.5A6.73,6.73,0,0,1,208.5,360ZM762,362.7c0,4.3-.5,4.1-1.3-.5-.4-1.8-.2-3.2.3-3.2S762,360.6,762,362.7Zm-2.5,4a77.14,77.14,0,0,0,1.1,8c.8,4-.6,2.5-3.6-3.8-2.7-5.7-2.7-6.2-1.2-7.9C758.4,360.2,758.8,360.6,759.5,366.7ZM240,365.5c2.1,3.4,2,5.5-.2,5.5-.6,0-.5-.7.3-1.6,1.2-1.5,1.1-1.6-.6-1s-2.1.1-2.2-2.9a16.51,16.51,0,0,1,.2-3.5A18.37,18.37,0,0,1,240,365.5Zm557.4-.2c1.4,1,1.5,1.8.7,4-1.1,2.9-5.1,3.9-5.1,1.2,0-.8.5-1.5,1-1.5s.8-1.1.4-2.5Q793.35,362.3,797.4,365.3ZM777,368.8a5.16,5.16,0,0,1-1.9,2.6c-1.8,1.6-1.8,1.6-1.4-.9C774.2,368.3,777,366.8,777,368.8Zm100.5,1.8c-4.3,2.9-6.2,2.8-4.1-.1a6.15,6.15,0,0,1,4.6-2.2l3.2-.2ZM778.8,378c-1.8,4.6-4,8.5-5.2,9.4-2.1,1.3-2.2,1.3-1.8-2.3.3-2.3,2-5.6,5-9.4,2.5-3.1,4.6-5.7,4.7-5.7S780.4,373.6,778.8,378Zm8.5-3.5c-2.4,4.3-5.3,6.4-3.8,2.7.4-.9,1.2-2.9,1.7-4.5s1.7-2.7,2.8-2.7C789.7,370,789.6,370.4,787.3,374.5ZM194.5,372a2.34,2.34,0,0,1-1.6,1c-.6,0-.7-.5-.4-1a2,2,0,0,1,1.6-1C194.7,371,194.8,371.4,194.5,372Zm-.2,3.2a9,9,0,0,0-.7,4.5q.45,7.2-5.4,2.7c-3.1-2.5-3.5-5.1-.6-4,.8.3,1.4,0,1.4-.7,0-1.9,2.1-3.7,4.3-3.7C194.7,374,195,374.4,194.3,375.2Zm604.1,8.1c-.5,2.3-2.1,3.5-9.6,7.3-9.4,4.7-9.6,4.6-3.9-2.6,2-2.5,2.8-3.9,1.9-3.2a53.41,53.41,0,0,0-5.5,6.3c-2,2.7-3.8,4.7-4,4.5s.4-2.2,1.2-4.7c1.1-3.2,3.2-5.8,7.5-9.4,3.2-2.8,6.2-4.9,6.7-4.9a6.45,6.45,0,0,0,2.8-1.2c1.9-1.3,2.1-1.2,2.7,1.8A18.1,18.1,0,0,1,798.4,383.3Zm-616.5-.8c.5-.2,1.7.6,2.9,1.8l2.1,2.2-6.3.1-6.3.2,1.6-3.4c.9-2,2.1-3.2,2.8-3s1.4,0,1.4-.7.4-.2.6,1.1S181.5,382.8,181.9,382.5Zm16.1-.4c0,1.1-.4,1.8-1,1.4a1.58,1.58,0,0,1-.3-2C197.4,379.4,198,379.6,198,382.1Zm683-.5c0,.3-1.4,1.7-3.1,3.1a15.89,15.89,0,0,0-4,5.1c-.6,1.6-1.4,2.2-2.5,1.8a18.57,18.57,0,0,0-4.7-.6l-3.2-.1,4.1-2a46,46,0,0,0,7.5-4.9C878.2,381.3,881,380.2,881,381.6Zm59,6c0,2.7-2.5,4.3-4.2,2.6-.8-.8-.6-1.8.6-3.7C938.4,383.5,940,384,940,387.6Zm-775.1.6c-1.6,3.1-1.4,2.9-3.4,2.2-1.6-.6-1.5-.9.6-2.5C165.3,385.4,166.3,385.5,164.9,388.2Zm724.3,5a42.84,42.84,0,0,1-.6,5.5,12.64,12.64,0,0,1-2.9.8l-2.8.7,1.5-3.6a17.32,17.32,0,0,1,3.1-5.2,5.78,5.78,0,0,0,1.5-2.5c0-.5.2-.9.4-.9A25.9,25.9,0,0,1,889.2,393.2Zm-92.8-3.3c.4.5-1.5,2.8-4,5-3.5,3-5.5,4.1-8,4.1a21.4,21.4,0,0,0-5.9,1c-2,.8-2.6.7-2.3-.2.4-1.1,17.2-10.7,19-10.8A1.7,1.7,0,0,1,796.4,389.9Zm179.5,5.3c.1,2.9-.5,3.3-2.6,2-1-.6-1-1.6-.1-4.6s1.3-3.5,1.9-2A15.75,15.75,0,0,1,975.9,395.2Zm-91.1-2.7c-.6,1.4-1.4,2.1-1.7,1.6s-1.5,1.1-2.5,3.5c-1.9,4.7-3.1,5.1-5.3,1.7-1.3-2-1-2.3,4.4-5.7,3.1-2,5.9-3.6,6-3.6A10.36,10.36,0,0,1,884.8,392.5ZM169.5,394c.3.5.1,1-.4,1a1.1,1.1,0,0,1-1.1-1c0-.6.2-1,.4-1S169.2,393.4,169.5,394Zm599.4,6.1c-2.2,1.4-3.3,1-1.9-.6.7-.8,1.7-1.2,2.2-.9S769.7,399.6,768.9,400.1ZM874.1,403c1.5,4.8,1.5,5-.7,7.1s-2.2,2-2.8.2c-.9-3.1-1-9.8-.2-11.1C871.7,397,872.6,397.9,874.1,403Zm-14.3,1.5c-.1,4.6-.4,5.5-1.9,5.5-2.5,0-2.8-.8-2.2-6.3.4-3.6,1-4.7,2.3-4.7C859.6,399,859.8,399.9,859.8,404.5Zm8.1,2.4-.1,6.6-1.6-5.2a35.65,35.65,0,0,0-2.4-5.9c-1.7-1.6-.7-3.1,1.7-2.6S868,400.6,867.9,406.9Zm-87.3-1.6c-4.3,3.7-8.6,6.3-8.6,5.3,0-.2.7-1.9,1.5-3.9,1.5-3.6,4.6-5.5,9.5-5.6C785.3,401,785,401.4,780.6,405.3Zm109.9-3.5c-.6.5-2.8,1.9-4.9,3.2-2.6,1.6-3.7,1.9-3.4.9.2-.8,2-2.2,3.9-3.1C889.8,400.9,892,400.5,890.5,401.8Zm71,2.2c1.3,1.4,2.2,1.7,3,1s1.6-.6,2.5.5.8,1.8-1.1,3.5a21.6,21.6,0,0,1-5.1,2.9l-2.8,1v-5.5C958,401.6,958.7,400.9,961.5,404Zm-163.7.2a3.45,3.45,0,0,1-2.4,1.7c-1.6.3-1.7.1-.5-1.3C796.5,402.7,798.3,402.5,797.8,404.2Zm-561.7,8.2c-.6,2.9-.9,6.6-.5,8,.6,2.6.6,2.6-5,2.6s-5.6,0-4.5-2.3a47.48,47.48,0,0,1,3.5-5.2,45.45,45.45,0,0,0,3.8-6.9c1.2-3,1.9-3.7,2.8-2.8S237,408.3,236.1,412.4ZM769,405.7c-.1.5-1.9,2.8-4,5.3l-4,4.5v-4.3c0-3.8.2-4.2,2.4-4.2,1.4,0,2.8-.5,3.1-1C767.2,404.8,769,404.7,769,405.7Zm-581.5,2.4c1.2,1.8-.3,2.2-2,.5-1.4-1.4-1.4-1.6-.1-1.6A2.59,2.59,0,0,1,187.5,408.1ZM943,417.4c0,.7,1.2,2.5,2.6,3.9,2.3,2.3,2.4,2.8,1,3.3-2.2.8-2,2,.6,4.6,1.6,1.6,1.7,2,.5,1.5-1-.4-1.7-.2-1.7.5s-1,2.2-2.1,3.4l-2.2,2.3-4.8-5.1c-5.2-5.6-6.5-8.8-2.8-6.8,2.8,1.6,3.3.7.9-1.5s-2.8-8.1-.5-7.1c.8.3,2.1.9,2.9,1.2a2.7,2.7,0,0,0,2.7-.9C941.6,415.1,943,415.4,943,417.4Zm-46.5-.4a2.82,2.82,0,0,1-2.1,1c-.8,0-1.4-.5-1.4-1s.9-1,2.1-1S896.8,416.4,896.5,417Zm-681.8,5.7c-1.2,4.8-.7,5.9,2,4.4,1.7-.8,2.2-.4,4.1,3.3l2.1,4.4-2.3,2.1c-1.2,1.1-2.7,2.1-3.3,2.1s-1.3.7-1.7,1.5c-.6,1.7.9,2.1,1.9.5.9-1.4,4.5-1.2,4.5.2a92.72,92.72,0,0,1-2,9.2c-1.1,4.3-2,8-2,8.2s-.9.4-2,.4-2.6-1.2-3.6-3.2a56.71,56.71,0,0,0-6.1-8c-3-3.1-4-4.8-3-4.8a2.58,2.58,0,0,1,2.2,1,2.53,2.53,0,0,0,1.8,1c.7,0,.4-.5-.6-1.1-1.7-1-1.6-1.2.7-3.6,3.3-3.3,5-9.4,4.3-16-.4-4-.3-5.1.8-4.7a1.71,1.71,0,0,0,2-.6C215.8,416.9,215.9,418.5,214.7,422.7ZM912,427a9.51,9.51,0,0,0-.8,5.1c.3,2,0,2.9-.9,2.9-.7,0-1.3-.2-1.3-.4s-.7-2-1.5-4l-1.6-3.7,3.3-1.4C913.1,423.9,913.5,424.1,912,427Zm-664.5-1c.3.5.1,1-.4,1a1.1,1.1,0,0,1-1.1-1c0-.6.2-1,.4-1S247.2,425.4,247.5,426Zm40.2,3.6a2,2,0,0,1-1.9.1c-.8-.3-.5-.6.6-.6S288.1,429.3,287.7,429.6Zm582.3.9a3.61,3.61,0,0,1-2,2.5c-1.5.8-2,.8-2-.3,0-1.4,1.9-3.7,3.2-3.7C869.6,429,870,429.7,870,430.5Zm125.8,1.7c-1.4,4.4-2.3,5.2-3.7,3.5-1.6-2,.5-6.7,3-6.7C996.7,429,996.8,429.4,995.8,432.2Zm-704,3.8c3.2,3.8,4.2,7,2.2,7-1,0-10.9-4.7-11.9-5.6-.7-.6,4.1-5.4,5.3-5.4C288,432,290,433.8,291.8,436Zm621.9,3.6c-.9.9-2.8-.6-2.1-1.8.4-.6,1-.6,1.7.1S914.1,439.2,913.7,439.6ZM162.5,439c.3.5.1,1-.4,1a1.1,1.1,0,0,1-1.1-1c0-.6.2-1,.4-1S162.2,438.4,162.5,439Zm614.7,2.9c-.4,1.1-.8,1-1.8-.4-.7-1-1.1-2.2-.8-2.6C775.4,437.5,777.8,440.3,777.2,441.9Zm-584.3-.7c-.3,4.5-1.4,7.7-2.5,7-.7-.5-.7-2.1-.2-5C191.2,438.8,193.1,437.3,192.9,441.2Zm91.5-1.3c.3.5-.3,1.1-1.4,1.4-2,.5-2.6-.3-1.3-1.6A1.55,1.55,0,0,1,284.4,439.9ZM757,440c2.1,0,3.3,4.5,1.5,6-1.3,1.1-1.7.8-4.9-4.4-1.7-2.7-1.7-2.9-.1-2.3A10.39,10.39,0,0,0,757,440Zm-466.7,2.6c4.1,2.1,3.9,1.8,3.1,3.8s-6.4,2.3-6.4.3a23.15,23.15,0,0,0-.6-3.5C285.7,440.6,286.1,440.5,290.3,442.6Zm497.7-.1c0,3-1.1,4.2-3.6,3.7-2.7-.5-2.8-.6-1.5-3C784,441.1,788,440.6,788,442.5ZM229.8,444c2.3,1.1,4.2,2.5,4.2,3.1s-.5.8-1.3.3-.5-.2.4.7c2.1,1.9,3.4,5.9,2,5.9-.6,0-1.1.8-1.1,1.7,0,2.9-4.8-3.6-5.6-7.5-1-5.2-1.9-3.7-1.9,3.5,0,4.8-.4,6.7-1.4,7.1s-1.2,0-.8-1.2c.4-1,.7-4.9.7-8.7s.1-6.9.3-6.9A46.22,46.22,0,0,1,229.8,444Zm-47.7,3.3c-1.1,2.9-3.2,3.5-5,1.3-1.7-2-.3-4.4,2.7-4.8C183.1,443.4,183.4,443.9,182.1,447.3ZM176,445c0,1.3-1.1,1.3-3,0-1.2-.8-1.1-1,.8-1C175,444,176,444.4,176,445Zm665-.6c0,.3-.4.8-1,1.1s-1,.1-1-.4a1.1,1.1,0,0,1,1-1.1C840.6,444,841,444.2,841,444.4Zm-738,1.3c-.1,1.1-2.6,4.3-3.4,4.3s-.8-3.5.1-4.3S103,444.8,103,445.7Zm660,.1a5.89,5.89,0,0,1-1.9,2.6c-1.4,1.3-2.1,1.4-2.7.5-.4-.7.1-1.8,1.1-2.6C761.6,444.8,763,444.6,763,445.8Zm-642.2,5.1c-1.5.5-2.1-.7-1.3-2.6.7-1.7.8-1.7,1.5.2C121.4,449.6,121.3,450.7,120.8,450.9Zm117.6-3.1a2.48,2.48,0,0,1-.4,2.1c-.6,1.1-1,.9-1.9-.8s-.9-2.1.3-2.1A2.85,2.85,0,0,1,238.4,447.8Zm-71.6,3.8c.5.5.7,3.1.4,5.7-.4,4.7-.5,4.8-3.1,4.3s-2.5-.5-.3.6c1.2.6,2.2,1.4,2.2,1.8,0,.9-9.3,4.1-9.9,3.4-.3-.3-.4-2-.3-3.8a8.22,8.22,0,0,0-1.8-5.8c-4.2-5.4-1.9-8.1,6.3-7.6C163.4,450.4,166.4,451.1,166.8,451.6Zm7.9,1a2,2,0,0,1-1.9.1c-.8-.3-.5-.6.6-.6S175.1,452.3,174.7,452.6Zm662.1,1.6c-.3,2.5-1.7,3.2-3.7,1.9-1.2-.8-1.2-1.2-.2-2.5C834.9,451.2,837.2,451.6,836.8,454.2Zm-755.3-.3c.9,1.6-.9,1.8-3.5.5L75.5,453h2.7A5,5,0,0,1,81.5,453.9Zm665.2,2.8c-.3,1-.5.4-.5-1.2s.2-2.4.5-1.8A7.56,7.56,0,0,1,746.7,456.7Zm59.9.1c-.4.3-1.2,0-1.9-.7-.9-.9-.9-1.4.3-2.1s1.6-.5,1.8.6A3,3,0,0,1,806.6,456.8Zm-605.2-1.3c.3.8.1,1.5-.4,1.5s-1-.7-1-1.5.2-1.5.4-1.5S201,454.7,201.4,455.5Zm533.5,8.3c.7,2.6,1.3,4.9,1.4,5.2s-.8.6-1.9.8c-1.8.3-2.5-.5-3.8-4.4-1.1-3.4-1.3-5.1-.5-6C731.9,457.3,733.5,458.8,734.9,463.8ZM841,462.5l-.8,4-.1-3.6c0-2,.2-3.9.6-4.2C841.8,457.6,841.8,458.3,841,462.5Zm152.3-2.7c-.2.8.8.9,2.7.5,2.6-.5,3-.3,3,1.6,0,1.7-.6,2.1-3.4,2.1a18.43,18.43,0,0,0-4.9.6c-1.5.5-1.5-.8-.1-5.4A1.39,1.39,0,0,1,993.3,459.8Zm-722.8.2c.4.6-.5,1-1.9,1s-2.6-.5-2.6-1,.9-1,1.9-1S270.2,459.4,270.5,460Zm536.3,1.6c.1,1.1-2,4.6-5,8.3-4.4,5.4-6.1,6.7-9.8,7.6-6.2,1.6-10.7,4.1-11.4,6.3-.4,1.1-2.4,2.5-4.6,3.2-3.9,1.3-12,8.7-12,11,0,.5-1.5,1.8-3.4,2.7s-6.6,4.2-10.6,7c-8.1,5.8-10.6,6.6-9.6,3a46.27,46.27,0,0,0,.6-8v-5.9l3.3.9a48.71,48.71,0,0,0,8.7.8c3,0,5.8.4,6.2.9a.92.92,0,1,0,1.2-1.2,7.07,7.07,0,0,1-1.7-3.7c-.4-1.7-1-4.1-1.3-5.4-.5-1.6-.4-2.2.4-1.8,2,1.3,10.2-3.1,12.3-6.7,1.7-3,2.3-3.3,4.7-2.7,2.7.8,9.2-.6,9.2-2,0-.4-1.6-2.1-3.6-3.9-2.9-2.5-3.4-3.4-2.3-4.1,3-1.9,12.2-4.9,15.2-4.9a21.45,21.45,0,0,0,7.2-1.9C805.2,458.9,806.4,459,806.8,461.6ZM909.5,460c.3.5-.1,1-1,1s-1.3-.5-1-1,.8-1,1-1S909.2,459.4,909.5,460Zm-180.7,5.7c1.1,5.1.5,6.3-3.3,6.3-1.5,0-2-.6-2-2.3.2-2.1,3.1-8.7,3.9-8.7C727.7,461,728.3,463.1,728.8,465.7Zm298,1.7c-.6,1.9-1.9,3.7-2.9,3.9s-1.9.3-1.9.1c0-.5,5.3-7.4,5.7-7.4C1027.7,464,1027.3,465.5,1026.8,467.4Zm-263.8.2c0,.8-.4,1.2-1,.9a2.82,2.82,0,0,1-1-2.1c0-.8.5-1.2,1-.9A2.52,2.52,0,0,1,763,467.6Zm236,.6-.1,3.3-1.4-2.5c-1.8-3.2-1.8-4,0-4C998.5,465,999,466,999,468.2ZM88.9,477.1c-1.8,3.8-3.7,6.9-4.2,6.9s-.6-.7-.3-1.6a32.83,32.83,0,0,0,.6-7c0-5.2.1-5.6,3.3-6.9C92.8,466.6,93,468.4,88.9,477.1Zm9.6-6.9c.5-.4.5-.2.2.4a1.25,1.25,0,0,0,.9,1.8c.8.3,1.3,1,.9,1.5-.8,1.5-3.2.3-5-2.6-1.6-2.3-1.6-2.4.3-1.4C96.9,470.5,98.1,470.6,98.5,470.2ZM842.6,472c0,1.1-.4,2-.8,2-1,0-1.1-2.4-.1-3.3S842.6,469.7,842.6,472Zm-738.1,0a2.5,2.5,0,0,1-4,0c-.4-.6.5-1,2-1S104.9,471.4,104.5,472Zm87.5-.6c0,1.1-1.9,1.5-2.5.6-.3-.5.1-1,.9-1S192,471.2,192,471.4Zm548,2.1c2.5,2.7,2.3,3-1.2,1.6-1.3-.5-3.2-1.2-4.3-1.6-1.6-.5-1.7-.8-.5-1.5C736.3,470.5,737.5,470.8,740,473.5Zm-627.7,1.4c-1.8,1.5-2,2-.8,2.5,2.7,1,1.6,2.7-1.2,2-4.6-1.1-4.7-1.5-.7-3.9C114.4,472.7,115.2,472.5,112.3,474.9Zm88.7,1.5c0,2-.8,2.6-6,4-5.8,1.7-8.7,1.5-7.5-.5a4,4,0,0,1,2.8-.9c1.2,0,4-1.1,6.2-2.4s4.1-2.5,4.3-2.5A6.47,6.47,0,0,1,201,476.4Zm529.5,12.9a37.23,37.23,0,0,0,6.7,5.3l2.9,1.5-.7,8.7c-.4,4.8-.8,9.4-.9,10.2-.2,2-8,7.4-9.4,6.6a4.24,4.24,0,0,1-1.1-3.1c0-1.3-.5-2.7-1-3-1-.6-.5,4.8.5,6.5.4.7-4.8,5-6.1,5a14.17,14.17,0,0,0-3.6,2.5c-1.7,1.4-3.2,2.4-3.4,2.2s.5-3.6,4.1-16.7c.7-2.6.5-2.3-6.4,8.4-2.2,3.4-2.6,3.6-5.5,2.9a45.69,45.69,0,0,0-8.3-.8c-2.9,0-5.3-.3-5.3-.8s-.5-.7-1.1-.7-.8.4-.4.9c.6,1.1-3.1,3.5-4.3,2.7-1-.6-.2-9.6.8-9.6.5,0,.2-1.6-.6-3.5a27.5,27.5,0,0,1-1.4-4.4c0-1.4,6.7,1.8,11.3,5.3,3,2.3,4.2,2.7,5.5,1.9,3.7-2.3,7-10.8,9.5-24l1.2-6.2,1.7,2.9c.9,1.7,2.1,3,2.6,3,1.4,0,4.1-7.3,4.9-12.9l.7-4.6,1.5,5A20.71,20.71,0,0,0,730.5,489.3ZM99.3,479c2.1,1.9,2.2,2.4,1.3,6.4l-1,4.4-3.1-2.1c-3-1.9-3.1-2.2-1.9-4.6a11.09,11.09,0,0,0,1.4-4.4C96,476.5,96.5,476.5,99.3,479Zm729.2-.9c1.1,1.6.1,1.9-1.3.3-.7-.8-.8-1.4-.3-1.4A2.17,2.17,0,0,1,828.5,478.1Zm-725,.9c.3.5.1,1-.4,1a1.1,1.1,0,0,1-1.1-1c0-.6.2-1,.4-1S103.2,478.4,103.5,479Zm92.8,8.7c3.1.3,5.7.9,5.7,1.3,0,1.5-1.3,1.8-3.9.8-3.7-1.4-11.8-1.1-17.6.7-2.7.8-5.1,1.5-5.2,1.5s-.3-1.1-.3-2.5c0-2.3.3-2.5,4.5-2.3,2.5,0,4.8-.2,5.2-.6s1.9-.5,3.3-.1S193.1,487.4,196.3,487.7Zm-75,2.3c1.2,0-2.3,2.9-3.5,3-.5,0-.8-.9-.8-2.1,0-1.5.4-1.9,1.6-1.5A11.13,11.13,0,0,0,121.3,490Zm50.8,2.7c-1.2,2-1.4,1.4-.5-1.2.4-.9.9-1.4,1.1-1.1S172.7,491.7,172.1,492.7Zm682.3-.1c.4,1,.1,1.4-.6,1.2-1.5-.5-2.3-2.8-1-2.8C853.3,491,854.1,491.7,854.4,492.6ZM791,514.4c1.7,1.7,1.1,3.4-2.2,7.2-2.6,2.9-10.1,7.4-12.4,7.4-2.1,0,3.1-13.5,6.2-16.1a3.44,3.44,0,0,0,1.4-2.2,18.49,18.49,0,0,1,2.2-4.6l2.3-3.6.8,5.5C789.7,511,790.5,513.9,791,514.4Zm265.3-4.2c1.2.7,2.3,1.3,2.3,1.3a7.07,7.07,0,0,1,.8,2.2l.7,2.3-4-2.2c-2.3-1.2-4.1-2.8-4.1-3.5C1052,508.7,1053.4,508.6,1056.3,510.2Zm-402.1,6c-.7.7-1.2.8-1.2.2,0-1.4,1.2-2.6,1.9-1.9C655.1,514.8,654.8,515.6,654.2,516.2Zm151.3.8a2.34,2.34,0,0,1-1.6,1c-.6,0-.7-.5-.4-1a2,2,0,0,1,1.6-1C805.7,516,805.8,516.4,805.5,517ZM754,519.5a13.51,13.51,0,0,1-1.2,5c-1,2.3-1.6,2.5-6,2.3l-4.8-.3,5.3-4.7c2.8-2.6,5.5-4.7,6-4.8S754,518.1,754,519.5Zm21.6,2.2c-1,1-1.9-.5-1-1.8.6-1.1.8-1.1,1.2,0A2.09,2.09,0,0,1,775.6,521.7ZM807,520c0,.5-.7,1-1.6,1s-1.2-.5-.9-1a1.9,1.9,0,0,1,1.6-1A.92.92,0,0,1,807,520Zm-532.5,1a2.34,2.34,0,0,1-1.6,1c-.6,0-.7-.5-.4-1a2,2,0,0,1,1.6-1C274.7,520,274.8,520.4,274.5,521Zm404.5.5c0,.8-.4,1.5-1,1.5s-1-.7-1-1.5.5-1.5,1-1.5S679,520.7,679,521.5Zm166.5-.6a1.22,1.22,0,0,1-.5,1.6c-.5.3-1-.1-1-.9C844,519.8,844.6,519.5,845.5,520.9ZM807,524.2a13.24,13.24,0,0,0,2,5.5c2,3.3,1.8,4.2-2.7,12.2-.1.2-2.7-.6-5.8-1.9l-5.5-2.2v-6.9c0-7.8.8-8.7,8.3-8.8C806.5,522,807,522.3,807,524.2Zm12.5,3.7c-.4,1.7-1.1,3.1-1.6,3.1-1.1,0-1.1,0,.2-3.9S820.4,523.7,819.5,527.9Zm20.2-1.7c-.3.8-.6.5-.6-.6s.2-1.7.5-1.3A2,2,0,0,1,839.7,526.2Zm6.3-.6c0,.8-.5,1.2-1,.9a1.22,1.22,0,0,1-.5-1.6C845.4,523.5,846,523.8,846,525.6Zm-53.7,5.1a40.66,40.66,0,0,1-.8,5.1c-.4.4-8.5-3.7-8.5-4.3,0-.8,7.4-5.5,8.7-5.5C792.6,526,792.8,527.3,792.3,530.7Zm53.9,1.4c-.5,4.7-.7,4.7-1.5-.4-.4-2.5-.2-3.7.6-3.7S846.4,529.3,846.2,532.1ZM678,530a1,1,0,0,1-1,1,1.08,1.08,0,0,1-1-1,1,1,0,0,1,1-1A.94.94,0,0,1,678,530Zm71,1.7a33.48,33.48,0,0,1-.9,4.5c-.7,3.1-.6,3.8.8,4.1.9.2-3,2.7-8.8,5.6l-10.3,5.2.7-3.8c.9-5,1.7-6.1,2.6-3.7.4,1.2.7.3.6-2.6a25,25,0,0,1,1.1-7.3c1.1-2.6,1.5-2.7,7.7-2.7C746.1,531,749,531.3,749,531.7Zm95,2.8c0,1.9-.5,2.5-2.2,2.5-1.3,0-1.8-.4-1.2-.8a6.1,6.1,0,0,0,1.7-2.5C843.2,531.2,844,531.6,844,534.5Zm225.9,11.7c-.9,5.9-1.1,6.1-3.3,5.2-1-.4-1.6-1.8-1.6-3.8a47.8,47.8,0,0,0-1.4-8.9l-1.4-5.8,4.3,4.2C1070.6,541.2,1070.7,541.3,1069.9,546.2Zm-339.4-5.6c-.3,1.9-1,3.2-1.6,2.8-.9-.5-.3-6.8,1-8.9C730.8,532.9,731.2,536.9,730.5,540.6Zm56.5-2.8a103.91,103.91,0,0,1,12.1,6c2,1.2,4.3,2.2,5.1,2.2,1.1,0,1.7,1.4,2.1,4.2a24.77,24.77,0,0,0,1.2,6c.6,1.5.2,1.8-2.2,1.8-3.8,0-10.3-4.5-10.3-7.1,0-1.8-2.5-4.7-7.5-8.8-2.1-1.7-2.5-1.2-2.8,3.5-.3,3.7-.5,3.9-4,4.2s-3.7.6-3.7,3.3a19.7,19.7,0,0,0,2,7.1c2.5,5.3,2.5,5.9-.5,8.1-2.4,1.7-2.5,1.7-2.5,0,0-1.3-.2-1.5-.9-.5s-1.6.4-3.9-2.3a26.91,26.91,0,0,1-3.2-4,23,23,0,0,1,2.1-3.9,27.35,27.35,0,0,0,2.6-9.6c.3-3.3.9-6.3,1.3-6.5s1.9.5,3.4,1.6c3.5,2.7,3.6.2.1-3.1-2.3-2.2-2.4-2.5-.8-4.2a13.16,13.16,0,0,1,1.8-1.8S782.4,535.7,787,537.8Zm44.9.5c-.1,3.1-.1,3.1-.9.7-1.1-3.6-1.1-5.2,0-4.5C831.6,534.8,832,536.6,831.9,538.3ZM839,537a1.1,1.1,0,0,1-1.1,1c-.5,0-.7-.5-.4-1s.8-1,1.1-1S839,536.4,839,537Zm19.4,2.2c2.2,4.4,2,6.3-.9,7.6-3.5,1.6-3.5,1.6-3.5-1.4,0-1.4.4-2.3,1-1.9s.8-.8.4-3.4C854.6,535.1,856.2,534.6,858.4,539.2ZM706,538c0,.5-.8,1-1.7,1-1.5,0-1.6-.2-.3-1C705.9,536.8,706,536.8,706,538Zm119.9,4.4c.8,1,.8,1.6-.3,2.5s-1.5.6-1.8-1.4C823.2,540.7,824.1,540.3,825.9,542.4Zm-100.1,4.8c-.5,2.3-1.4,4.6-2,4.9s-3.7.8-6.9.8c-4.2,0-5.9-.4-6.3-1.5-.9-2.4.4-3.6,3-3.1,1.3.2,2.4.1,2.4-.3s1.8-1.2,4-1.9,4.2-1.6,4.5-2.1C726,541.6,726.7,543.4,725.8,547.2Zm-602.4-.6a22.64,22.64,0,0,1,.6,5.5c0,3-.3,3.7-1.5,3.3s-1.3-.2-.9,1.1.2,1.6-1.7,1.3c-2.1-.3-2.4-.9-2.7-5.6s-.1-5.3,2-6.1C122.4,544.8,122.7,544.8,123.4,546.6ZM679,546c0,.5-.7,1-1.5,1s-1.5-.5-1.5-1,.7-1,1.5-1S679,545.4,679,546Zm71.5,0a3.11,3.11,0,0,1-2.3,1c-1.5,0-1.5-.2-.2-1C750,544.7,751.3,544.7,750.5,546Zm-451,1a2.82,2.82,0,0,1-2.1,1c-.8,0-1.4-.5-1.4-1s.9-1,2.1-1S299.8,546.4,299.5,547Zm463.1,3.5c-.4,1.9-1.1,3.3-1.7,3s-.9-.2-.9.4-1.2,3-2.7,5.4c-2.7,4.1-2.9,4.2-6,3.3-2.5-.7-3.3-1.4-3.3-3.3s1.1-2.8,5.3-4.7c3.4-1.5,5.8-3.4,7-5.5C762.6,545.2,763.5,545.7,762.6,550.5ZM865,547.6c0,.8-.5,1.2-1,.9a1.22,1.22,0,0,1-.5-1.6C864.4,545.5,865,545.8,865,547.6Zm-750.8,1.9c-.4,2.1-.7,2.3-1.9,1.3s-1.3-1.4.3-2.5C114.9,546.6,114.8,546.6,114.2,549.5Zm563.9,7.7c-3.4,4.2-3.9.3-1-6.7l1.3-3,.6,4C679.4,554.3,679.1,556,678.1,557.2Zm-567.4-3c1.2,4.5,1,5.8-1,5.8a16.32,16.32,0,0,0-4.8,1.8l-3.6,1.8-3.4-2.8c-2.7-2.3-3.2-3.2-2.3-4.5a8.1,8.1,0,0,1,2.5-2.4c1.3-.6,9.6-3.5,10.9-3.8C109.3,550.1,110.1,551.9,110.7,554.2Zm637,2.2c-1,5.2-1.1,5.3-5.3,6.3-4,.9-4.2.9-3.4-.8.9-1.5.6-1.7-2-1.4-1.6.2-3.2,0-3.5-.5a2.72,2.72,0,0,0-2.5-.3c-2.2.6-2.7-1.1-.8-2.4,1-.7,16.1-5.9,17.9-6.2C748.4,551,748.2,553.4,747.7,556.4Zm319.3.7c0,2.3-1.6,2.5-2.4.3-1-2.5-.7-3.4.9-2.8A3,3,0,0,1,1067,557.1Zm-347.1,1.3c.9,1.1.4,1.7-2.3,3-4.6,2.2-5.6,2-5.6-.8C712,557.3,717.7,555.7,719.9,558.4ZM828,562.7a11.93,11.93,0,0,1-1.4,3.1l-1.2,2.3-2.5-2.1c-2.2-1.9-2.2-2-.2-1.1,3.6,1.8,4,1.2.8-.9l-3-2h3.8C826.3,562,828,562.3,828,562.7Zm7.2,4.5c-1,2.2-1.1,2.1-1.1-1.2-.1-2.6.2-3.1,1.1-2.2S836,565.5,835.2,567.2Zm-140.8.9c-1,1.6-2.4.9-2.4-1.2,0-1.8.2-1.9,1.5-.9C694.3,566.7,694.7,567.6,694.4,568.1Zm25.3-1.5a2,2,0,0,1-1.9.1c-.8-.3-.5-.6.6-.6S720.1,566.3,719.7,566.6Zm-609.1,1.9a7.47,7.47,0,0,1-3,1.5c-.5,0-.1-.7,1-1.5a6.73,6.73,0,0,1,2.9-1.4C112.1,567.1,111.6,567.7,110.6,568.5Zm605.2.4c1.2.7.7,2.8-2.4,8.9a4.63,4.63,0,0,1-1.8-.4c-1.2-.5-1.6-1.4-1.3-3s0-2.4-.9-2.4c-2,0-1.7-1.7.4-2.9A5.47,5.47,0,0,1,715.8,568.9Zm25,2.3a21.64,21.64,0,0,1-1.4,3.6c-.5.7-4.4-2.4-4.4-3.5,0-1.4,2.8-3.2,5.2-3.3C741.7,568,741.8,568.4,740.8,571.2ZM219,570a1,1,0,0,1-1,1,1.08,1.08,0,0,1-1-1,1,1,0,0,1,1-1A.94.94,0,0,1,219,570Zm535-.1a3.87,3.87,0,0,1-1.6,2.1c-1.3,1.1-1.9,1-3.7-.8l-2.1-2.2h3.7C752.3,569,754,569.4,754,569.9Zm-601,6c1.2,2.3,1.4,9.1.2,9.1-.4,0-2.4-1.4-4.5-3.1-3.7-3-4.7-4.9-2.6-4.9a4.86,4.86,0,0,0,2.5-1.5C150.6,573.5,151.7,573.6,153,575.9Zm877.3,3.7c-2.7,4.2-5,2.7-2.5-1.6,1.2-2.1,2-2.6,2.9-1.8S1031.6,577.7,1030.3,579.6ZM740.5,579c.3.5.1,1-.4,1a1.1,1.1,0,0,1-1.1-1c0-.6.2-1,.4-1S740.2,578.4,740.5,579Zm-88.6,6.2-1.2,2.3-.9-3c-.6-2.3-.4-3.3,1-4.3s1.7-1,2,.7A7.79,7.79,0,0,1,651.9,585.2Zm39.1-3.8c0,.9-3,1.4-3.5.6-.4-.6.3-1,1.4-1S691,581.2,691,581.4Zm376,.6c0,.5-.2,1-.4,1s-.8-.5-1.1-1-.1-1,.4-1A1,1,0,0,1,1067,582Zm-951.4,1.6a15.63,15.63,0,0,0-.6,2c0,.3-.4.3-1-.1-1.1-.7-.2-3.5,1.2-3.5C115.8,582,115.9,582.7,115.6,583.6Zm917.7,5.6c-.6,3.3-2,5.8-3.2,5.8-.6,0-3.1-5.8-3.1-7.3,0-.3,1.2-.8,2.8-1s3-.5,3.4-.6S1033.7,587.5,1033.3,589.2Zm-924.5,7c-1,7.8-1.4,8.8-3.2,8.8-.9,0-1.8-1.6-2.3-4.2-.8-4-.6-4.5,2.2-7.5a17.06,17.06,0,0,1,3.6-3.2C109.4,590,109.3,592.8,108.8,596.2ZM750,597.4a6.37,6.37,0,0,1-1.4,3.1c-1.2,1.7-1.6,1.8-3.2.5-1.8-1.4-1.8-1.4-.5.3s1.3,2,.1,2.7c-.9.5-1.7.5-2-.1-1.1-1.7-.4-6.7,1.1-8.5,1.1-1.3,1.1-1.8.2-2.1-.7-.3-1.3-.9-1.3-1.4s1.6.2,3.5,1.7S750,596.8,750,597.4ZM91.3,595.5c2.7,2.4,3.5,6.8,2.1,12.1-.8,3-6,2-10.1-1.9L80,602.6l2.4-2.5a26.61,26.61,0,0,0,3.5-4.9C87.4,592.5,87.8,592.5,91.3,595.5ZM676,596.6c0,1.3-.5,2.4-1.1,2.4-.8,0-.8.4-.2,1.2,1.4,1.7,2.7,7.6,1.5,6.3-1.5-1.6-3.2-7.6-2.5-8.8.3-.6.1-.7-.5-.3s-1.6-.2-2.1-1.3c-.9-1.6-.7-2,.7-2.3C674.6,593.1,676,594.1,676,596.6Zm-9.2,2.2.3,3.2-4.4-2.7c-3.5-2.2-4.1-3-2.8-3.5a10.25,10.25,0,0,1,4.1-.5C666,595.5,666.6,596.1,666.8,598.8ZM701,601c0,1.1-.3,2-.6,2a12.58,12.58,0,0,1-3.1-2l-2.6-2h3.2C700.3,599,701,599.4,701,601Zm117,1.1c0,.6-.4.7-1,.4a2.34,2.34,0,0,1-1-1.6c0-.6.5-.7,1-.4A2,2,0,0,1,818,602.1Zm309.5,12.4c4.2,9.1,8.5,21.1,8.5,23.6,0,1.8-.4,1.6-2.6-1.1a22.24,22.24,0,0,0-5.5-4.5c-2.7-1.5-2.9-1.4-4.6,1.2-.9,1.6-1.8,3-1.9,3.2s-2.6-.3-5.4-1c-3.9-1-5.4-1.9-6.1-3.7-1.1-3-1.2-7.5-.1-6.8,1.5.9,12.2,2.3,12.2,1.6,0-.3-1.7-1.5-3.8-2.6-2.9-1.6-4.8-1.9-8.7-1.4-3.6.5-4.5.9-3.2,1.4s1.7,2,1.7,4.7c0,4.6-.8,4.8-4.1,1.3a31.54,31.54,0,0,0-5.6-4.5c-3.7-2.3-4.3-5.2-1.6-8.1a5.9,5.9,0,0,1,3.8-1.8c3.1,0,15.6-6.4,18.5-9.5,2.3-2.5,2.5-2.5,3.8-.8A72.29,72.29,0,0,1,1127.5,614.5ZM747,607c-.6,1.1-1.6,2-2.2,2s-.3-.9.7-2a9.54,9.54,0,0,1,2.2-2C747.9,605,747.6,605.9,747,607Zm323,6.1c0,.6-6.2,2-6.6,1.5a33.64,33.64,0,0,1-.9-4.5l-.7-4.4,4.1,3.4C1068.1,611,1070,612.8,1070,613.1ZM91.4,610.6c1.7.7,2.1,2.9.7,3.8-.5.3-1.6-.5-2.5-1.9C88,610,88.5,609.5,91.4,610.6Zm994.7,4.6q.9,1.8,0,1.8c-.6,0-1.8-1.5-2.7-3.3-1.6-3-1.6-3.1,0-1.8A14,14,0,0,1,1086.1,615.2Zm-981-.5c-1.2,2-1.4,1.4-.5-1.2.4-.9.9-1.4,1.1-1.1S105.7,613.7,105.1,614.7ZM752.4,618l.6,3.5-1.9-4c-1-2.2-1.6-4.4-1.3-4.9C750.5,611.4,751.7,613.8,752.4,618Zm332.4-.3c2.3,2.5,3.3,5.8,1,3.5-1.8-1.8-2.8-1.5-2.8.8s-.9,2.5-3.4.7c-1.5-1.1-1.6-1.7-.4-6.1,1.1-4,1.4-4.5,2.3-3A21.07,21.07,0,0,0,1084.8,617.7Zm-1002-3.1c2.2.6,1.3,5.1-1.4,6.9-1.4.9-2.7,1.5-2.9,1.3-.6-.6-3.5-8-3.5-8.9S79.3,613.5,82.8,614.6Zm583.2.6c0,1.3-1.5,5-3.3,8.3-2.9,5.5-3.5,6-7.4,6.7-6.8,1.1-10.1,3.4-12.7,8.8l-2.4,5h2.5a44.78,44.78,0,0,0,8.2-1.4,109.18,109.18,0,0,1,11.9-2.1c5.8-.6,6.3-.5,5.8,1.2-.3,1-1.4,5.5-2.6,10s-3.4,11.9-5.1,16.5-3.3,9.4-3.6,10.7l-.6,2.4,3.3-2.4a20.67,20.67,0,0,0,5.1-6.2c2.2-4.3,2.9-4.6,2.9-1.5,0,1.3-4,7.9-8.9,14.8a285.77,285.77,0,0,0-16.6,27c-12.4,23.1-12.1,22.7-19.3,27.9a108.44,108.44,0,0,0-13.7,13c-3.8,4.5-7.3,8.1-7.6,8.1s-.9-6.9-1.3-15.3c-.7-16.1.1-23,4.6-39.7,2.7-10.1,19.2-55.7,23.3-64.7,2.4-5.3,12.8-24,14.9-27a43,43,0,0,1,4.6-.9l4.5-.7-4.1,4.9c-10.1,12.2-9.7,13.5.9,2.8,7.8-7.9,8.5-8.4,12.5-8.4C665.5,613,666,613.3,666,615.2Zm15.3.4,2.4,2.5-1.8,5.2a39.44,39.44,0,0,0-1.9,7.9c0,3.2-.2,3.2-5.3,1.4-3.5-1.2-3.6-1.4-2.1-2.7,2.6-2.1,4.4-7.3,4.4-12.4S677.9,611.9,681.3,615.6Zm114.8,1.1c-.7,1.4-.3,2.6,1.6,5.2l2.6,3.3-2.7-1.7c-1.4-1-2.6-2.2-2.7-2.9s-.4-.1-.9,1.1c-1.2,2.8-3,2.9-6.4.2-3.6-2.9-3.4-4.9.7-5a15.63,15.63,0,0,0,5.2-.9C796.6,614.7,797.2,614.8,796.1,616.7Zm-658.6,8.2-.7,2.6-1.5-3.1a8.16,8.16,0,0,1-.8-6l.8-2.9,1.4,3.4A11,11,0,0,1,137.5,624.9Zm645.3-3.4a12.16,12.16,0,0,1,1.2,4.4,23.33,23.33,0,0,0,1.4,5.8l1.4,4-5.8,5.8c-4.1,4.1-6.3,5.6-7.5,5.1a1.61,1.61,0,0,1-1.1-2.2,13.64,13.64,0,0,0,.6-3.7,3.7,3.7,0,0,1,2.2-3.2c3.4-1.5,4.4-5.6,2.9-11.2-1.1-4.2-1-4.9.5-6C781.1,618.5,781.5,618.6,782.8,621.5Zm290.5,4.2c-2.1,2-4.4,3.6-5.2,3.4-1-.2-1.2.4-.8,2a9.35,9.35,0,0,1,0,4.7c-.5,2.1-.6,2.2-1.9.5a7.73,7.73,0,0,1-1.4-3.6,1.66,1.66,0,0,0-1.5-1.7c-.9,0-1.2-.6-.8-1.8a6.45,6.45,0,0,1,6.2-4.2,14.14,14.14,0,0,0,5.1-1.5C1077.2,621.1,1077.3,621.8,1073.3,625.7ZM157.5,625a2.34,2.34,0,0,1-1.6,1c-.6,0-.7-.5-.4-1a2,2,0,0,1,1.6-1C157.7,624,157.8,624.4,157.5,625ZM769,634.1c0,3.9.3,4.7,1.5,4.3s1.5.1,1.5,1.7c0,3-1.7,5.8-2.7,4.4-1.2-1.5-8.3-4.6-13.8-6-3.8-1-4.3-1.3-2.2-1.4s2.7-.5,2.3-1.9c-.6-1.7.9-3,8.1-6.7C767.5,626.5,769,628.1,769,634.1Zm36.3.2c-1,2.1-1.1,2-1.7-1-.4-1.8-1.2-3.5-1.7-3.8a2.43,2.43,0,0,1-.9-1.8c0-.6,1.2.1,2.6,1.6C805.7,631.6,806,632.6,805.3,634.3Zm257.7-.2a.92.92,0,0,1-1,.9c-.5,0-1-.7-1-1.6s.5-1.2,1-.9A1.9,1.9,0,0,1,1063,634.1Zm-.9,6.6c-.9,1.6-1,1.5-1.1-.8,0-1.4.3-2.9.8-3.3C1063,635.4,1063.2,638.8,1062.1,640.7ZM158,637.9c0,1.2-2.8,2.2-3.4,1.2a1.2,1.2,0,0,1,.1-1.5C155.6,636.7,158,636.9,158,637.9Zm629,1.7c0,2.4-5,8.4-7.1,8.4-2.6,0-2.4-.5,1.7-5.6C785.4,637.8,787,636.9,787,639.6Zm-111.2,1.1c-.2.5-1.2,2.5-2.2,4.7s-1.9,3.7-2,3.5a26,26,0,0,1-1-4.7c-.6-4.2-.6-4.2,2.5-4.2C674.8,640,676,640.3,675.8,640.7ZM825.5,643c-1,1.1-1.5,2.3-1.2,2.6.7.7-3.7,6.4-5.9,7.7-1,.5-2.9-.4-5.8-2.8s-4.6-3.2-4.9-2.3c-.2.7-.8.9-1.3.5-1.3-1.2.9-4,3.7-4.5,3-.6,5.5-.5,9.6.3,2.5.6,3.4.3,4.5-1.4.7-1.2,1.7-2.1,2.2-2.1S826.5,641.9,825.5,643Zm-142.2,3.5a1.58,1.58,0,0,1-.3,2c-.6.4-1-.3-1-1.4C682,644.6,682.6,644.4,683.3,646.5Zm103.7,1c0,1.7-.4,2.3-1.5,1.9s-1.2-1.1-.4-2.5C786.4,644.3,787,644.5,787,647.5Zm-50.3,0c1.4,1,2.4,1.2,2.8.5s1.7-.7,3-.4,2.6.1,2.9-.5c1.1-1.8,2.3-1.3,3,1.3.8,3.3,9.7,11.1,15,13.1l4.3,1.7-.9,4.6c-.6,2.6-1.3,6.2-1.7,8.1-.5,2.8-1.5,3.9-5.1,5.8-3.9,2.1-4.5,2.2-5.3.7-.6-1-.3-2.2,1-3.6,1.8-2.1,1.8-2.1-.5-.7a4,4,0,0,0-2,3.8c.2,1.3-.3,2.6-1,2.8s-1-.1-.5-1.3.3-1.5-.5-1-1.2.1-1.2-.8c0-1.9-2.1-1.2-7.7,2.6a44.52,44.52,0,0,1-4.6,2.8c-.7,0,.9-6.6,2.8-11.9,2.4-6.8.5-4.1-6.2,8.9a32.33,32.33,0,0,1-3.8,6.3,108.37,108.37,0,0,1-11.5,4.2c-5.8,1.9-19.5,6.8-30.5,10.9s-20.1,7.3-20.3,7.1c-1-1,15.7-28.5,20.7-34.3,3-3.4,5.7-6.2,6-6.2s1.7,1.8,3.1,4.1,3.3,4.5,4.2,5c2.7,1.5,3.2-.8.9-4-3.1-4.3-2.7-8.5.8-11s4.1-2.6,4.1-.2c0,1.9.2,1.9,3.7.5s3.9-1.4,7.6.6a26.22,26.22,0,0,0,10.2,2.7c6.1.5,6.3.5,10.5-3.3,2.3-2.1,3.7-4,3.1-4.2s-.5-1.2.5-2.7c1.5-2.3,1.4-2.4-5.7-7-5.5-3.5-6.9-4.9-5.8-5.6C734,645.7,734.2,645.8,736.7,647.5Zm383.7,1.1c.9,3.3.3,3.9-2.3,2.2-2.3-1.4-2.7-3.4-.8-4.1C1119.5,645.8,1119.8,646,1120.4,648.6Zm-441.8,6.1c-3.2,4.6-3.3,4-.4-2.4,1.4-3.2,2.3-4.2,2.5-3.1C680.9,650.1,680,652.6,678.6,654.7Zm22.1-5.1c.2.6-.8,1.6-2.2,2.2-2.8,1.3-3,1-1.4-1.9C698.1,647.9,700.1,647.7,700.7,649.6ZM149,651.1a.92.92,0,0,1-1,.9c-.5,0-1-.7-1-1.6s.5-1.2,1-.9A1.9,1.9,0,0,1,149,651.1Zm629.4-1.5a1.55,1.55,0,0,1,.9,2c-.4,1.1-.9,1.2-1.9.3a3.35,3.35,0,0,1-1.4-2C776,648.8,776.3,648.8,778.4,649.6Zm336.6-.2c0,.3-.4.8-1,1.1s-1,.1-1-.4a1.1,1.1,0,0,1,1-1.1C1114.6,649,1115,649.2,1115,649.4Zm-427.2,2.7a1.34,1.34,0,0,1-2.6,0c-.2-.6.4-1.1,1.3-1.1S688,651.5,687.8,652.1Zm99.2,2.6a33,33,0,0,1-.6,6.1l-.7,2.3-1.4-2.1c-1.8-2.6-3.4-8-2.7-9.1.3-.5,1.6-.9,3-.9C786.7,651,787,651.4,787,654.7Zm314.5-2.7c.3.6-.1.7-.9.4-1.8-.7-2.1-1.4-.7-1.4A1.9,1.9,0,0,1,1101.5,652Zm-369.6,4c4.8,4.4,4.1,4.8-3.9,2.4-4.8-1.4-5.2-1.8-3.7-2.9a4,4,0,0,0,1.7-2.4C726,651.3,727.3,651.9,731.9,656Zm-46.5-1.4c1,2.5-.1,3.7-8.8,10.4-1.1.8.1-1.5,2.5-5.2s4.7-6.8,5-6.8S685.1,653.7,685.4,654.6Zm-139,6.8c-.4,1.8-1,2.4-1.7,1.7-.5-.5-.6-2.2-.3-3.7.5-1.8,1-2.4,1.7-1.7S546.8,659.9,546.4,661.4ZM781,666.5c0,4.1-.5,4.3-3.7,1.3-3.4-3.2-3.3-3.5,3-4.7C780.7,663.1,781,664.6,781,666.5Zm-9,3.3c0,5.3-.2,6-2.5,7-2.9,1.3-2.8,1.7-1.4-6.5.7-4.2,1.6-6.3,2.5-6.3S772,665.5,772,669.8Zm4.8.9c.9,1.7.9,2.2-.3,2.7s-1.5-.2-1.5-2.6C775,667.4,775.2,667.4,776.8,670.7Zm-76.8.5c0,1.9-.2,2-1,.8-1.3-1.9-1.3-3,0-3C699.6,669,700,670,700,671.2Zm104.4,7.3a2.84,2.84,0,0,1-2.3,1.5c-1.4-.1-1.3-.3.3-1.5C804.9,676.6,805.1,676.6,804.4,678.5ZM486,683.1a8,8,0,0,1-2,4.9c-2.7,2.7-2.5,3,1,3,2.3,0,3,.5,3,1.9,0,1.9-.1,1.9-4.1.3l-4-1.7.6-4.9C481.4,679.4,486,676.5,486,683.1Zm593,.2a40,40,0,0,1-1.7,3.8,19.32,19.32,0,0,0-1.6,7.1c.2,3.1-.2,3.7-2.4,4.2a4.77,4.77,0,0,1-4.1-.6c-1-.7-1.9-1.4-2.1-1.5-1.1-.7,2.5-3.3,4.8-3.4,1.5-.1,1.9-.3.9-.6-1.4-.4-1.2-1.1,1.5-4.9S1079,681.9,1079,683.3Zm-63,10.6c0,1.4-.4,2.1-.8,1.5-1.5-1.7-3.1-6.2-2.4-6.9C1013.8,687.5,1016,691.1,1016,693.9Zm-515.7-4.2a7.56,7.56,0,0,1-3,0c-1-.3-.4-.5,1.2-.5S500.9,689.4,500.3,689.7ZM836,691c0,1.5-.7,2-2.5,2-1.4,0-2.5-.3-2.5-.8s.9-1.2,4.8-3.1A4.7,4.7,0,0,1,836,691Zm286.4-.2c1,1.6-2.3,7.2-4.4,7.2-1.1,0-2-.5-2-1s.6-1,1.3-1,.7-.4-.3-1c-1.3-.9-1.2-1.3.9-3C1120.4,689.9,1121.6,689.5,1122.4,690.8Zm-630.3,2.8c.5,1.5.8,2.9.5,3.1-.6.7-3.6-2.8-3.6-4.3C489,690,491,690.8,492.1,693.6Zm319.9-.5c-2.2,1.3-9.1,3.1-9.8,2.5-.9-1,.3-1.6,5.4-3S814.4,691.5,812,693.1Zm-687,3a1.89,1.89,0,0,1-1,1.4c-.5.3-1,0-1-.9a14.46,14.46,0,0,0-.6-3.3c-.5-1.6-.4-1.6,1,.1A7.45,7.45,0,0,1,125,696.1Zm345.5-2.3a8,8,0,0,0-.5,2.3c0,1.7-1.7.9-2.7-1.4-.9-1.9-.8-2.2,1.3-2.2C470.2,692.5,470.8,693,470.5,693.8Zm34.5.3c1.6,2.8.6,3.5-2.4,1.6-1.8-1.2-2.6-1.3-2.9-.4-.2.7-.9.3-1.6-1.1-1.1-2.1-1-2.2,2.3-2.2C503,692,504.2,692.6,505,694.1Zm-20.2.9c1.7,1.1,3.2,2.4,3.2,2.9,0,1.8-2.1,16.6-2.5,17.8-.3.9-2.4.1-6.4-2.3-4.9-2.9-6.3-4.3-7.1-7.3-1.3-4.8-1.5-4.2,2.8-8.9S480.3,692.3,484.8,695Zm350.3,0c.4,0,.9,1.5,1.2,3.2a26.88,26.88,0,0,0,1.2,4.9c.5,1.4-.1,1.6-4.7,1.1-2.9-.2-5.6-.7-6-1.1s-.4-2.7-.1-5.2l.5-4.6,3.7.8A42,42,0,0,0,835.1,695Zm-12.3,7.5c-.6.7-9.8-.8-9.8-1.6,0-.4,1.3-1,2.9-1.4a9.28,9.28,0,0,0,4.7-2.7c1.9-2,1.9-2,2.2,1.7A11.91,11.91,0,0,1,822.8,702.5Zm-52.6.1c.3,2.5,0,3.8-1.1,4.3-2.4,1.3-16.1,6.1-16.1,5.7,0-.2,1.2-3,2.6-6.2,2.2-4.8,2.8-5.5,3.4-4,.6,1.9.7,1.9,1.2-.1.4-1.5,1.5-2.3,3.9-2.6,1.9-.2,3.9-.5,4.5-.5S770,700.6,770.2,702.6Zm3.4-2a12,12,0,0,0-.6,3.2c0,1.5-.2,1.5-1,.2-1.5-2.3-1.2-5,.6-5C773.7,699,774,699.5,773.6,700.6Zm353.4.8a2.47,2.47,0,0,1-2.4,2.8c-1.9.4-2.3.1-1.9-1.1.5-1.4,3.1-4.1,4-4.1C1126.9,699,1127,700.1,1127,701.4ZM495,701c0,.5-.2,1-.4,1s-.8-.5-1.1-1-.1-1,.4-1A1,1,0,0,1,495,701Zm552.8.7c2.3.3,4,.8,3.8,1.1-.7.7-11.6.6-11.6-.2v-1.7c0-.7.7-.8,1.8-.4A24.77,24.77,0,0,0,1047.8,701.7Zm-892.9,1.9c.3,1.6.1,1.7-1.3.5-1.9-1.6-2.1-3.4-.3-2.9A3.67,3.67,0,0,1,154.9,703.6ZM1062,702c0,.5-.2,1-.4,1s-.8-.5-1.1-1-.1-1,.4-1A1,1,0,0,1,1062,702Zm15.4.6c.5,1.4.4,1.5-.9.4-1.7-1.4-1.9-2-.6-2C1076.4,701,1077.1,701.7,1077.4,702.6Zm-324.3,2.1c-.8,1.5-1,1.5-1.1.2,0-1.7,1-3.2,1.8-2.5C754,702.7,753.7,703.7,753.1,704.7Zm306.4-.7c4.4,1.9,4.7,2.2,4,4.8-1.4,5.4-1.3,5.7,3,5.7,2.2,0,4.3.4,4.7.9,1.4,2-.3,2.4-4.9,1a30.5,30.5,0,0,0-9.3-1.2c-5,.2-4.7.9-3.5-8.5.3-2.6.8-4.7,1-4.7S1056.9,702.9,1059.5,704Zm-309.8,5-1,5.1-4.1-.2c-9.2-.4-9.4-.8-1.9-5.5a66.12,66.12,0,0,1,7.4-4.4C750.4,704,750.3,706.3,749.7,709Zm-609.2-.3c-1,1.6-2.5,3.7-3.2,4.8-1.4,1.9-1.5,1.9-.8-.5,1.6-5.5,2.5-7,4.1-7S142.1,706.3,140.5,708.7Zm369.8.9c1.1,2.1,1.1,3.5.1,7.7-.6,2.9-1.6,7.1-2,9.4l-.9,4.3-3.9-3.3-3.9-3.3,3.7-4.8c2-2.6,3.6-5.4,3.6-6.2s.4-1.4.9-1.4.6-1.1.3-2.5C507.6,706.3,508.6,706.3,510.3,709.6ZM823,709c0,1.3-1.1,1.3-3,0-1.2-.8-1.1-1,.8-1C822,708,823,708.4,823,709Zm25.3,4.3a22.52,22.52,0,0,1,.3,7.3l-.7,3.5-11-5.7c-8-4.2-10.9-6.2-10.9-7.6,0-1.7.8-1.8,10.7-1.6l10.7.3Zm23.1,3.9a75.14,75.14,0,0,1-1.2,10.3c-.8,2.8-.9,2.7-2.6-3.7l-1.8-6.6,2.8-3.6c1.6-2,2.9-3.6,3-3.6S871.5,713.3,871.4,717.2Zm277.9-1.5c5.3,3.4,5.6,3.9,4.3,5.8-1.9,2.8-2.8,2.4-5.5-2.9-1.9-3.8-2.6-4.4-3.8-3.4s-1.9.7-3.6-1l-2.1-2.2h2.5C1142.6,712,1146.3,713.7,1149.3,715.7ZM530.2,727c10.6,15,12.3,18.2,15.3,30,2.4,9.6,6.5,28.3,6.5,29.9,0,.3-3.7-5.5-8.1-12.9-12-19.9-17.9-27.9-25.3-33.8-3.6-3-6.6-5.7-6.6-6,0-1.6,3.1-16.6,3.5-17,.2-.3,1.2.1,2,.8,1.3,1.1,1.9,1.1,3.2-.3.9-.9,1.8-1.6,1.9-1.4S526.1,721.2,530.2,727Zm488.2-2.4c-.8,3.2.7,4.4,5.6,4.4,2.8,0,4,.7,5.7,3.1,1.9,2.9,2,3.4.7,6.5-2.3,5.6-2,6.5,1.9,4.7a33.21,33.21,0,0,0,5.8-4c1.5-1.4,2.9-2.1,3.1-1.6a32.72,32.72,0,0,1,0,6.6c-.3,4.2-.8,5.7-1.7,5.4-3.4-1.3-10.5-1.9-10.5-.8a1.27,1.27,0,0,0,1.4,1.1c2,0,3.1,1.9,1.7,3.3s-5.1-1.9-5.1-4.9a4,4,0,0,0-1.1-3c-.9-.5-1,.4-.4,3.2l.7,3.9-2.1-1.9a7.93,7.93,0,0,1-2.2-5.5c-.1-3.4-.2-3.4-.8-.8l-.6,2.8-3.7-3.8-3.7-3.8,1.5-4.5c1.2-3.3,1.4-6.4,1-11.4l-.6-6.9,2,2.6C1018.5,721.2,1018.9,722.6,1018.4,724.6Zm124.9-1.4c.3,2.1.2,3.8-.3,3.8-1.3,0-1.9-1.3-2.6-6.1-.6-3.9-.5-4.2.9-2.9C1142.1,718.8,1143,721.2,1143.3,723.2Zm-371.3.2v5.3l-6.2,1.2c-3.5.7-7.3,1.5-8.5,1.8l-2.2.5,2-4.2,2-4.1,3.5,2.2c4.8,2.9,5.3,1.8.8-1.9-4.1-3.4-4-3.6,3-5.2C772,717.6,772,717.6,772,723.4Zm1.7-3.2c-.3.8-.6.5-.6-.6s.2-1.7.5-1.3A2,2,0,0,1,773.7,720.2Zm12.5.8c1.6,0,1.9.4,1.3,2.2-.3,1.3-1,4-1.4,6.1-.8,3.5-.7,3.7,1.2,3.1,1.7-.5,1.7-.2-.8,3a36.62,36.62,0,0,0-4.5,9.3c-1.1,3.2-1.9,5.3-2,4.8s-.4-.4-.9.3c-.7,1.1-2,.8-6.7-1.5-5-2.4-5.9-3.2-5.6-5.2s0-2.2-1.2-1.1c-1.2.9-2.4.5-6.2-2.4-2.6-2-5.1-3.6-5.5-3.6a.9.9,0,0,1-.9-.9c0-.9,17.9-5.6,18.6-4.9a29.12,29.12,0,0,1,1.3,2.8c.9,2.4,1,2.4,1-.8.1-2.6.5-3.2,2.4-3.3l2.2-.2-2.3-.4c-1.9-.4-2.3-1-2-3.6s.9-3.4,4.8-4.7c3.6-1.3,4.6-1.3,4.8-.3A2.54,2.54,0,0,0,786.2,721Zm77.5,3.2c-.4,5.2-.4,5.3-3.3,5a8,8,0,0,1-3.9-1.4c-.7-.6-.2-.9,1.5-.6,2.2.3,2.5-.1,2.8-3.2.3-2.9,1.5-4.9,3-5C864,719,864,721.4,863.7,724.2Zm24.2.6c2.2.8,2,1-2.5,2.9-5.2,2.2-11.7,3.9-9.8,2.6.6-.4,1.5-2.4,1.8-4.3,1.5-7.4,1.4-7.3,4.9-4.5A32.13,32.13,0,0,0,887.9,724.8Zm192.1-2.1c0,2-1.6.8-2.3-1.7-.4-1.7-.3-1.9.9-.9A3.78,3.78,0,0,1,1080,722.7Zm-86.2.3a12.26,12.26,0,0,1,2.2,6.2v3.3l-3-5c-3-5-3.7-7.5-2.2-7.5C991.3,720,992.6,721.3,993.8,723Zm-254.3-1.1c-1,.9-25.1,5.1-29.1,5.1-1.2,0-.1-1.1,3.1-3,4.7-2.8,5.6-3,16-3C736.1,721,740,721.4,739.5,721.9Zm120.2,3.8a4,4,0,0,1-2.3.1c-1.6-.3-1.6-.4.2-2.2s1.9-1.8,2.2-.2A4,4,0,0,1,859.7,725.7Zm130.1,1.9c-.4.3-1.2-.5-1.8-1.8-1.2-2.2-1.2-2.2.6-.6C989.6,726.2,990.1,727.2,989.8,727.6Zm-812.9,3.8c1.9,7.5,1.6,8.6-2.1,8.6a28,28,0,0,1-5.5-.6l-2.3-.6,2.3-3.2a18.14,18.14,0,0,0,2.2-3.6c.1-1.3,2.7-5,3.4-5C175.4,727,176.3,729,176.9,731.4Zm728.5-3.6c.3.5-.4,1.7-1.6,2.6-1.9,1.7-2,1.7-1.5.1a8.46,8.46,0,0,0,.7-2.6C903,726.8,904.7,726.7,905.4,727.8Zm-765.2,3.3c-.2,1.7-.8,2.7-1.3,2.2-.9-.9-.1-5.3,1-5.3C140.3,728,140.5,729.4,140.2,731.1Zm8.3,2.5A5.71,5.71,0,0,1,152,736c1.3,2.4,1.3,3.3,0,2.5-.5-.3-1-.1-1,.5s-.4.9-.9.6-.8.2-.7,1.1a2.16,2.16,0,0,1-1.6,2.1c-1,.2-1.8-.2-1.8-.9s-1.1-2.7-2.5-4.5c-3.7-4.9-3.3-10.2.6-6.3A12,12,0,0,0,148.5,733.6Zm-26.5-1c0,.8-.5,1.2-1,.9a1.22,1.22,0,0,1-.5-1.6C121.4,730.5,122,730.8,122,732.6Zm741.5-.6c.3.5.2,1-.4,1a2.34,2.34,0,0,1-1.6-1c-.3-.6-.2-1,.4-1A2,2,0,0,1,863.5,732Zm-6.4,1.6c1.2,1.4,1.1,1.6-.5,1.3a3.45,3.45,0,0,1-2.4-1.7C853.7,731.5,855.5,731.7,857.1,733.6Zm-542.6,4.2a8.5,8.5,0,0,0-.5,2.5c-.1,1.5-1.5-1-2.5-4.1-.6-2.2-.5-2.2,1.4-1C314.1,735.9,314.8,737.1,314.5,737.8ZM897,735.2c-.1,1.2-6.5,8.8-7.5,8.8s3-7.5,4.5-8.7C895.9,733.7,897,733.7,897,735.2ZM123.5,738c1.3,2.4,1.3,3.7.3,7.5-.7,2.5-1.6,4.5-2,4.5-1.1,0-3.1-8.4-2.1-8.7.5-.2.7-1.7.5-3.3C119.6,734.1,121.5,734.1,123.5,738Zm737.9-.4c2.5,1.2,3.5,2.5,3.8,4.5.5,3.5.2,3.6-4.4.4C853.5,737.5,853.9,734.1,861.4,737.6Zm25.4,3.4c-1.5,2.3-3.8,2.7-3.8.6,0-1.4,1.4-2.4,3.8-2.5C887.8,739,887.8,739.4,886.8,741Zm-6.8,0a1,1,0,0,1-.9,1,2.14,2.14,0,0,1-1.6-1c-.3-.6.1-1,.9-1S880,740.4,880,741Zm-21.5,4.3a25.73,25.73,0,0,1,2.5,5.1c0,.4-2.1,1.6-4.7,2.8s-5.1,2.4-5.5,2.6.2-1.3,1.2-3.3a33.86,33.86,0,0,0,2.5-7.6c.4-2.1.8-3.9,1-3.9A24,24,0,0,1,858.5,745.3Zm-753.2-1.4c.5.5,1,2.7,1.1,4.8.1,3.4-.2,3.8-2.7,4.1-1.6.2-2.9-.2-3.1-1s-.8-3.3-1.4-5.7l-1-4.3,3.1.6A11.49,11.49,0,0,1,105.3,743.9Zm758,1c3.3,1.7,3.9,6.1.7,6.1a1.79,1.79,0,0,1-2-1.8,8.17,8.17,0,0,0-1.7-4.1c-.9-1.3-1.2-2.2-.7-2S861.7,744.2,863.3,744.9Zm14.4,1.9c-2.6.5-4.7-.5-4.7-2.3,0-1.4.4-1.3,3.3.2C878.8,746,879.1,746.5,877.7,746.8Zm-223,2.4c-2.4,2.9-7.2,9-10.6,13.5-6.7,9-8.7,10.8-4.4,4,1.5-2.3,4.6-7.3,6.8-11,2.7-4.4,5.6-7.7,8.1-9.2a30,30,0,0,1,4.2-2.5C659,744,657.2,746.4,654.7,749.2ZM411,748c-.8.5-1.7.7-1.9.4s.1-.9.9-1.4,1.7-.7,1.9-.4S411.8,747.5,411,748Zm-235.3,1.6c0,.7-.6,1-1.4.7s-1.3-.8-1.3-1.2.6-.8,1.3-.8A1.35,1.35,0,0,1,175.7,749.6Zm229.7,2.5c-2.4,2.7-2.9,1.6-.8-1.6,1-1.6,2-2.3,2.2-1.6S406.4,751,405.4,752.1Zm-225-1.6c.3.8.1,1.5-.3,1.5s-1.1-.7-1.5-1.5-.1-1.5.3-1.5S180,749.7,180.4,750.5Zm595.4,1.6c2,.8,2.1,1.1,1,2.9-.7,1.1-1.5,2-1.8,2s-1.8-1.6-3.4-3.6C768.5,749.4,768.6,749.4,775.8,752.1Zm262.8-.1c1.7,0,1.9,1.7.2,2.3-.7.2-.3.3.8.1,1.9-.3,4.2,2.1,3.1,3.2-.8.9-8.7-3.7-8.7-5.2,0-1.1.5-1.4,1.6-1A11.4,11.4,0,0,0,1038.6,752Zm-862.1,1c.3.5.2,1-.4,1a2.34,2.34,0,0,1-1.6-1c-.3-.6-.2-1,.4-1A2,2,0,0,1,176.5,753Zm222,5c.3.6-.6,3.6-2.2,6.8l-2.8,5.7-2.7-3.9-2.6-4,4.1-2.7C397.1,756.8,397.6,756.6,398.5,758Zm-109.3,5.6c-.7,3.6-2.2,3.9-2.2.5,0-2.2.4-3.1,1.3-2.8C288.9,761.5,289.3,762.6,289.2,763.6Zm654.6,2.5c.2,2.8.2,2.9-1.6,1.2-1.2-1.2-1.4-2.1-.8-2.5s.7-.8-.1-.8-1.3-.4-1.3-.9.8-.7,1.8-.4S943.7,764.2,943.8,766.1ZM869,770a1,1,0,0,1-.9,1,2.14,2.14,0,0,1-1.6-1c-.3-.6.1-1,.9-1S869,769.4,869,770Zm-621.6,1.9c.3.5-.1,1.2-1,1.5-2,.8-2.9.1-1.9-1.3C245.3,770.8,246.7,770.7,247.4,771.9ZM306,774a1,1,0,0,1-.9,1,2.14,2.14,0,0,1-1.6-1c-.3-.6.1-1,.9-1S306,773.4,306,774Zm560.1,5-1,2.5v-2.7a12.59,12.59,0,0,1,.6-4.5c.7-1.7.8-1.7,1.1.2A12.07,12.07,0,0,1,866.1,779ZM98.6,776.5a6.58,6.58,0,0,1-3.5,1.4c-.9,0-.2-.7,1.4-1.4C100.4,774.7,101,774.7,98.6,776.5Zm194.4,2c-7.1,3.9-7.5,4-10.8,2.2-2.2-1.3-2.2-1.4-.5-3,1.1-1,4.1-1.7,7.8-2,3.3-.2,6.9-.4,8-.5S296.6,776.6,293,778.5Zm96-1.8c0,.9-1,2.8-2.2,4.2s-1.6,2-.8,1.3c2.2-1.9,2.9-1.5,3.6,2.3.7,4.1-.2,5.7-1.9,3.4a9.32,9.32,0,0,0-3-2.2c-1-.4-1.5-1.1-1.2-1.7s0-1-.8-1c-1.9,0-5.2-4.9-4-6,.4-.5,2.4-1,4.3-1.3s4.1-.5,4.8-.5S389,775.8,389,776.7Zm-56.2,3.2c.3,1.9.1,2-2.2,1-1.4-.7-2.6-2-2.6-3C328,775.2,332.4,777.1,332.8,779.9Zm564.6,4.2.4,6.4h-6.9c-7.6,0-8.4-.8-4.6-4.9s4.8-5.6,4-5.6c-.4,0,.6-.9,2.2-1.9s3.4-1.5,3.8-1.1S897.2,780.6,897.4,784.1Zm-638.6-4.8c.2,1-.3,1.7-1.2,1.7s-1.6-.9-1.6-2.1C256,776.5,258.3,776.8,258.8,779.3ZM90.5,780a3.11,3.11,0,0,1-2.3,1c-1.5,0-1.5-.2-.2-1C90,778.7,91.3,778.7,90.5,780ZM273,781c0,.5.3.9.8.8,1.1-.3,8.2,4.6,8.2,5.7a6.8,6.8,0,0,1-1,2.5c-.9,1.2-1.8.6-5.5-3.5-4.5-5.1-5.3-6.5-3.5-6.5A.94.94,0,0,1,273,781Zm644.5,8.9c.4.8-3.2,2.7-4.2,2.3a32.38,32.38,0,0,0-4.8,1.2c-5,1.6-5,1.5-6.9-4.8l-1.4-4.5,3.3,2.5,3.3,2.5,1.5-2.2c.9-1.1,2-1.8,2.5-1.5s1.8-.7,2.8-2.2l1.8-2.7.8,4.3A24.94,24.94,0,0,0,917.5,789.9Zm-642.6,2.3c5,7.7,5,7.8,3.5,11.3-1.3,3.1-1.8,3.5-5.2,3.5-3.6,0-3.8-.2-5.9-5.6-1.7-4.6-1.9-5.9-.9-7.9,1.2-2.3,1.3-2.2,4.5,3.1,1.8,3,3.4,5.4,3.7,5.4.6,0-2.5-5.5-5.8-10.2-1.5-2.2-1.6-3.1-.7-5.2.7-1.4,1.3-2.5,1.5-2.3S272.1,788,274.9,792.2Zm-196.2-4c-.3.8-.6.5-.6-.6s.2-1.7.5-1.3A2,2,0,0,1,78.7,788.2Zm294.6,2.3c1.6,2.4,2.7,5.5,2.5,6.7-.3,2.1-.7,2.2-4.8,1.8-2.5-.3-6.6-.5-9.2-.5-4.2,0-4.8-.2-4.8-2.1,0-2.3,2.3-3.4,7.3-3.4,1.5,0,2.7-.5,2.7-1.1s-.6-.9-1.4-.6-2.5-.3-4-1.3l-2.8-1.8,3.9-1C369.4,785.4,370.3,785.7,373.3,790.5ZM82,795.3c0,2.9-1.7,1.1-2.2-2.4-.5-2.9-.4-3,.9-1.4A8.23,8.23,0,0,1,82,795.3Zm306.1-3a14.17,14.17,0,0,0-.1,2.3c0,1.2-.5,1-2-.9-2.5-3.2-2.5-3.8.1-2.9C387.2,791.3,388.1,791.9,388.1,792.3Zm527.3,5.4c-.3,2.1-1.8,7.6-3.2,12.3l-2.6,8.5-.7-7.3c-.4-4-1-7.6-1.3-8-.5-.5,7.2-9.2,8.2-9.2A13.67,13.67,0,0,1,915.4,797.7Zm-654.4.9c0,2.2-.2,2.5-1.5,1.4a4.42,4.42,0,0,1-1.5-2.6,1.45,1.45,0,0,1,1.5-1.4C260.5,796,261,797,261,798.6Zm-.6,10.4-.7,4.1-1.8-2.8c-2.3-3.5-2.4-4.7-.2-6.8,1.4-1.5,1.7-1.5,2.5-.1C260.7,804.2,260.7,806.7,260.4,809Zm-139.7,3.5c.9,2.4-.1,2.7-1.5.5-.8-1.3-.8-2-.2-2S120.3,811.7,120.7,812.5Zm-3.7,2.7v3.3l-1.9-2.5c-2.1-2.6-1.9-4,.5-4C116.5,812,117,813.1,117,815.2Zm778.2,4.3c-.2,1.9-.8,3.2-1.3,2.9-1.5-.9-1,1.3.6,2.6a6.14,6.14,0,0,1,1.5,4.1c0,2.1.4,2.7,1.4,2.3s2.1.6,3.1,2.6c1.9,3.7,1.5,4.5-1.9,3.6-1.9-.5-2.8-1.6-3.6-4.5a21.56,21.56,0,0,0-2.9-6.3c-2-2.4-2-2.5.5-6.6a26.2,26.2,0,0,1,2.8-4.2A17.89,17.89,0,0,1,895.2,819.5Zm-777,5.2c1.3,3.5,1.4,5.1.6,6.1s-1.4.8-2.3-1.5a36.23,36.23,0,0,1-1.8-6.1C113.7,818.2,116.2,819.2,118.2,824.7Zm787.1,5.1c-.6,2.4-1.8,2.8-2.8,1.1-.4-.6.1-1.6,1.1-2.4C905.9,826.9,906.1,827,905.3,829.8ZM128,843.4a40,40,0,0,1-1.6,6.5l-1.5,5.2-1.8-2.3c-3.4-4.4-3.6-6.7-.5-9.9,2.1-2.2,3.1-2.6,4.1-1.8A3.9,3.9,0,0,1,128,843.4Zm44.1-.7c-1.2,2-1.4,1.4-.5-1.2.4-.9.9-1.4,1.1-1.1S172.7,841.7,172.1,842.7Zm-13.3,6.5c.3,2.2,0,2.5-2.2,2.1-3-.6-3-.7-1.4-3.3S158.4,846,158.8,849.2Zm9.9-2.3c1.5-1.2,1.6-1.2.8.1-2.1,3.7-4.7,7-5.6,7s-1.3-6.3-.2-7.3c.3-.4,1.2-.2,2,.4C166.7,848,167.4,847.9,168.7,846.9Zm7.1,7.1c-.2,3.3-.7,6.2-1,6.6s-2.2-.6-4.1-2l-3.4-2.6,3.6-3.9c2-2.1,4-3.9,4.5-4S176,850.7,175.8,854Zm-2,12.4a1.31,1.31,0,0,0,1.8.9c.8-.3,1.4,0,1.4.7,0,2.2-2.1,5-3.8,5a13.57,13.57,0,0,0-5.1,2.1c-1.8,1.1-3.4,1.9-3.5,1.7s0-3.8.2-8l.4-7.6,4.1,1.8C171.6,864.1,173.6,865.6,173.8,866.4Zm85.9.3c-.3,1-.5.2-.5-1.7s.2-2.7.5-1.8A10.28,10.28,0,0,1,259.7,866.7ZM192.2,871c1.6,0,1.9.5,1.5,2.1s-.3,1.9.6,1c1.7-1.7,2.5-1.3,2.3,1.4-.1,2.9-1.7,3.2-5.1.9-2.4-1.6-4.5-1.2-4.5.7,0,.6.5.7,1.1.3s1-.2.8.5c-.9,2.5-2.4,1.5-2.7-1.7-.4-4.5.4-6.6,2.4-5.8A13.55,13.55,0,0,0,192.2,871ZM219,882.5c1,1.2.9,1.6-.5,2.1-1.9.8-4-.9-3.1-2.5S217.5,880.7,219,882.5Zm27,5.7c0,3.6-.6,3.5-5.5-.7l-4-3.4,3.8.6c2.8.4,3.7.2,3.7-.8s.2-1.1,1,.1A9.61,9.61,0,0,1,246,888.2Zm12.1,2-.9,3.3-.1-3.2a14.56,14.56,0,0,1,.6-5C258.9,882.3,259.3,886.2,258.1,890.2Zm-82.2,1a25.67,25.67,0,0,1-.8,4.7c-.5,1.9-.8,2.1-1.7,1-1.5-2-1.5-6.2-.1-7.1C175.3,888.5,176,888.9,175.9,891.2ZM157,891c0,.6.8,1,1.7.8,1.9-.3,3,2.9,1.5,4.4-.6.6-1.7-.4-3-2.6-1.2-2-1.7-3.6-1.2-3.6A1,1,0,0,1,157,891Zm49.1,4.2,3,2.3,1.8-2.4c1.6-2.1,2-2.2,5.9-1.1a12.66,12.66,0,0,1,6.6,4.8l2.4,3.4-7.4,7.4c-4.1,4-7.4,7.8-7.4,8.3a1,1,0,0,1-1,1.1c-.5,0-1-.8-1-1.8s-1-3.6-2.1-5.7A33.06,33.06,0,0,1,204,902a44.28,44.28,0,0,0-1.5-7.3C201.6,892.4,202.5,892.5,206.1,895.2Zm-44,18.1c-.8.8-1.1-.7-1-5.9l.2-6.9,1,5.8C163,910.5,162.9,912.5,162.1,913.3Z"/><path d="M445,77.6a4.31,4.31,0,0,0,1.5,2.4,6.8,6.8,0,0,1,1.5,4.4c0,2.4.3,2.7,1,1.6a5.08,5.08,0,0,0,.9-2.5C449.9,82.1,445,76.3,445,77.6Z"/><path d="M738.5,331c-1,1.1-1.4,2-.9,2s1.5-.9,2.2-2,1.1-2,.9-2A9.54,9.54,0,0,0,738.5,331Z"/><path d="M788.9,387.7c-1.3,1.6-1.2,1.7.4.4a6.23,6.23,0,0,0,1.7-1.7C791,385.6,790.2,386.1,788.9,387.7Z"/><path d="M1079.5,627c-.3.6.1.7.9.4,1.8-.7,2.1-1.4.7-1.4A1.9,1.9,0,0,0,1079.5,627Z"/><path d="M753.1,674.7c-4.5,2.6-7.8,4.9-7.2,5.1,1.2.4,11.2-4.8,15.1-7.8C765.4,668.6,761.8,669.8,753.1,674.7Z"/><path d="M390.1,21.9c-1.2.8-1.3,1.6-.3,4.9a27.13,27.13,0,0,0,3.3,6.6c5.2,6.6,18.1,11.5,25.9,9.7,2.3-.5,4.9-.7,5.6-.4,1.1.4,1.1,0-.1-2.3a15.7,15.7,0,0,1-1.5-3.9c0-2.7-6.7-8.7-13.2-11.9-5.6-2.9-8.2-3.6-12.7-3.6C394,21,390.9,21.4,390.1,21.9Z"/><path d="M592.3,36.7c-3.1,1.7-9,9.2-7.5,9.4.4.1,5.7.2,11.7.4,10.6.2,26.8,2.5,32.2,4.6,2.2.8,2.5,1.4,2,4.3l-.5,3.3,4.3-1.5c4.7-1.5,8.1-4.4,7.1-6.1-.9-1.3-7.2-3.1-11.2-3.1a7.53,7.53,0,0,1-5.5-2.6c-4.7-5-18-10.4-25.9-10.4A17.46,17.46,0,0,0,592.3,36.7Z"/><path d="M857,65a10.23,10.23,0,0,0-1,3.7c0,5.7-8.9,30.6-13.1,36.4-1.1,1.6-1.6,2.9-1,2.9s1.5-.9,2.1-2a12.43,12.43,0,0,1,4.8-3.9c4.7-2.4,8.2-6.1,12.6-13.4,5.8-9.8,5.7-17.6-.4-23C858.2,63.1,858,63.1,857,65Z"/><path d="M234,203c-4.5,1.1-14.9,12.2-19,20.4-3.4,6.7-3.7,8.6-1.5,8.6,5.3,0,14.8-9.7,19.6-20,1.7-3.6,3.5-7.3,4-8.3a5.19,5.19,0,0,0,.7-1.6C237.6,202.2,235.9,202.6,234,203Z"/><path d="M1076.9,393.3a131.91,131.91,0,0,1-22.1,19.2l-2.8,1.7-1.5-3.3-1.4-3.4-.1,4.2c0,2.3-.6,4.4-1.2,4.7-.9.4-1,.8-.2,1.1,1.6.8-1,14.1-4.2,22.1a46.32,46.32,0,0,0-2.4,7.2c0,1.3,7.3-1,9.8-3.1,1.3-1.1,1.4-.1.8,7.8a140.52,140.52,0,0,1-1.8,14.7c-.7,3.2-.9,6-.7,6.3,1.5,1.4,8.5-2.4,10.4-5.6,2.8-4.8,2.6-17.2-.5-25.4a39,39,0,0,1-2.2-12,35.89,35.89,0,0,0-1.3-9.6l-1.3-3.7,4.7-.4c6.2-.6,16.7-5.5,22-10.3,5.1-4.6,6.3-8.6,4.6-15.1l-1.2-4.9Z"/><path d="M12.6,492.4c-5,1.9-9,5.8-10.4,10.1-1.2,4.2-.3,4.4,7.9,1.7,7.2-2.5,20.6-4.6,30.1-4.6,4.3-.1,7.8-.4,7.8-.9s-.8-.7-1.9-.7-4.5-1.4-7.8-3.1C31,491.2,19.1,490,12.6,492.4Z"/><path d="M47.1,523.6c.2.5,2.1,4.3,4.2,8.4,3.8,7.6,7.6,19.4,7.8,24,.1,2.2.2,2.3.8.5.4-1.1,1.7-4.2,3-6.9,3.9-8.2,2-19.4-3.9-23.8C56.4,523.9,46.5,522,47.1,523.6Z"/><path d="M57.7,606.1c.7.7,1.5,1,1.8.7s-.2-.9-1.2-1.2C56.9,605,56.8,605.1,57.7,606.1Z"/><path d="M75.8,694.3c-3,1.2-3,3.2-.1,8.9,3,6,17.9,10.4,25.9,7.7a25.39,25.39,0,0,1,5.9-1.2c1.1.1,1.4-.1.8-.4a2.66,2.66,0,0,1-1.3-2.4c0-1-1.6-3.6-3.5-5.8C97.7,694.7,83.5,691.2,75.8,694.3Z"/><path d="M1061.8,754.7a2,2,0,0,0,1.9-.1c.4-.3-.2-.6-1.3-.5S1061,754.4,1061.8,754.7Z"/><path d="M181.6,921a15.11,15.11,0,0,0,1.6,4c.6,1,.7.7.2-1a15.11,15.11,0,0,0-1.6-4C181.2,919,181.1,919.3,181.6,921Z"/><path d="M184.4,929.2a3.83,3.83,0,0,1-2.1,4.3c-3.2,2.1-2.7,5.4,1.2,7.7,2.6,1.5,3.8,1.6,7,.7,4.9-1.4,7.5-3.5,7.5-6.4s-4-4.9-8.4-4.2c-3.1.5-3.6.3-4.5-2.1l-1.1-2.7Z"/></svg>