<svg id="Layer_1" preserveAspectRatio="none" xmlns="http://www.w3.org/2000/svg" viewBox="0 0 1176 403"><title>tree-roots</title><g id="layer2"><g id="g4348"><path id="path4206" d="M646,2s1.56,57.94,20.68,70.52c14.31,9.42,33.18-6.93,48.77-13.64C726.9,54,736,43.55,747.78,39.55c17.79-6,37.26-9.5,55.67-6.25C813,35,820.32,45,830,46.37c6.4.92,12.66-3.92,19.09-3.41,7.41.6,14.33,4.37,21.2,7.39,7.68,3.37,14.34,9.31,22.27,11.94,8.69,2.88,18.08,2.25,27,4,8,1.55,15.71,6,23.85,5.69,6.26-.23,12.07-3.61,18-5.69,7.49-2.61,14.41-7.82,22.26-8.52,12-1.07,35.52,6.82,35.52,6.82s-22.81,3.21-33.93,6.25C971.53,74.57,957.6,81.17,943.4,81c-18.08-.16-29.66-14.88-54.07-8.53-6,1.57-16.09-5.51-18.56.57-4.87,12.07,15.08,30.48,25.45,37.51,10.73,7.28,22.92,5,35.52,3.41,8.09-1,13.42-10.48,21.2-13.07,10.5-3.5,14.31-2.49,24.92.57,5.4,1.55,21.74,6.82,21.74,6.82s-9.9-.16-14.85,0c-9,.28-18.44-1.28-27,1.7-11,3.8-26.26,14.56-37.64,16.48-13.89,2.35-19.21-5.83-31.81-12.5-6.44-3.41-13-3.68-17.5-9.66-4.32-5.73-4.46-14.37-9-19.89C853.39,74.29,841.42,68,830,62.28c-7.7-3.84-15.94-6.93-24.38-8-7.4-.89-15.44-1.46-22.27,1.7-5.51,2.55-12.62,6.67-13.25,13.07-.86,8.79,8.15,15.74,14.31,21.6,8.88,8.43,20.65,12.55,31.28,18.18,5,2.67,9.88,6.13,15.37,7.39,9.16,2.1,19-2.4,28.1,0,8.14,2.15,15.48,7.24,22.27,12.5,6.18,4.79,12.2,10.25,16.43,17,3,4.74,2.28,11.67,5.83,15.91,11.46,13.69,45.59,25.58,45.59,25.58s-37.64-3.77-51.42-15.91c-5.07-4.47-4.92-13.26-9-18.76-3.6-4.83-7.69-11.75-12.72-14.77-5.37-3.22-12.61-8-18.56-9.66-8.35-2.32-16.61,3.66-24.91,1.13-17.49-5.32-38.38-35.16-50.9-21-6.26,7.07,1.66,20.43,6.89,28.41,3.67,5.59,12.75,8.67,18,12.5,12.37,9,28.7,10.52,40.82,19.89,8,6.2,21.2,12.77,20.14,23.3-1.35,13.44,6.29,21.25,17.5,26.71,7.79,3.8,9.54,25.57,9.54,25.57S879,227,871.3,218c-9.08-10.55-8.83-25-19.61-33.53-11.47-9-37.12-29.43-46.12-17.62-6.4,8.39,12.29,17.22,18,26.14,5.95,9.26,13.24,17.91,17,28.42,2.8,7.88,2.87,16.61,3.71,25-3.16,19.67.22,30.64-7.95,46.6,0,0,.29-21.25-.53-31.82-1.09-13.94-.68-28.64-5.84-41.49-4.42-11-12.76-19.91-20.67-28.41-5.87-6.31-14.9-9.15-19.62-16.48s-3.15-17.91-7.42-25.58a70.53,70.53,0,0,0-21.2-23.3,35,35,0,0,0-15.91-6.25c-13.87-1.48-27.4,7.16-41.35,6.82-8.1-.19-19-12.09-23.85-5.11-6.93,10,9,23.4,16.43,33,11,14.07,30.73,18.89,40.29,34.09,9.88,15.71,6.7,37.75,14.85,54.56,2.6,5.38,5.73,11.11,10.6,14.21,8.64,5.5,20.87.5,29.69,5.68,13.26,7.8,30.74,35.8,30.74,35.8-10.72-11-19.81-26.09-34.46-27.28l5.31,44.9c1,.33-4.56-22.56-14.32-42.62-5.31-10.92-21.89-9.71-29.69-18.76-5.47-6.34-6.77-15.69-10.6-23.3-4.77-9.49-9.07-19.43-15.37-27.84-2.27-3-4.42-8.85-7.95-8-9.36,2.37-3.87,21.11-10.08,29-3.42,4.34-10.81,3.81-13.78,8.52A16.08,16.08,0,0,0,690,245.27c2.45,9.78,7.1,19.61,12.19,28.13,4.6,7.71,16,14.16,15.64,23.3-.61,14-6.64,26.51-14.05,37.79-10.48,16-19.61,27.28-19.61,27.28s18.52-33.58,19.08-52.28c.28-9.34-.7-18.77-5.3-26.71-4.15-7.17-15.84-10.21-19.61-17.62-3.89-7.63-5.94-17-4.77-25.57,1.57-11.66,18.47-16.8,21.47-28.13,1.44-5.48-3.4-14.76-5-20.17-3-9.85-11.07-17.33-18.55-23.87-4.35-3.8-9.24-8.38-14.85-8.53-7.82-.2-14.91,5.81-21.2,10.8-6.54,5.19-13,11.45-16.44,19.32-3.13,7.1-3.6,15.47-3.18,23.3.93,17.44-1.83,49.3,13.52,58,27.68,15.63,37.38,88.65,37.38,88.65s-21-71.55-43.61-65.35c-20.75,5.69,4.51,73.87,4.51,73.87s-13-34.82-17.89-58.53c-2.42-11.78,5.24-40.32.26-51.14-3.71-8.08-4.55-21.23-12.72-23.3-11.07-2.82-20.85,11-28.63,19.89-5.68,6.49-10.67,14.54-12.19,23.3-1.84,10.53,3,21.18,4.24,31.82C563,330.28,566.48,372,566.48,372s-6.06-15.87-2.92-41.77c.55-4.48-14.32-39.76-13-44,3.25-10.45-1-22.47,2.12-33,2.57-8.67,9.24-15.28,13.25-23.3,2.76-5.53,3.93-12,7.42-17.05,4-5.71,11.4-8.13,14.85-14.21a59.92,59.92,0,0,0,7.42-31.25c-.64-15.44-.16-40.8-14.32-43.76-15.48-3.23-20.23,26-31.27,38.08A373.52,373.52,0,0,1,518.24,193c-5,4.34-12.17,6.27-15.9,11.93s-5.53,13.39-5.31,20.46c.24,7.43,4.52,14.05,6.9,21,3.24,9.52,13.82,19.11,10.07,28.41-10.07,25-28.31,83.11-26,84.11,0,0,10.43-37.93,10.07-57.4-.21-11.85,6.45-23.17,3.72-34.66-2.91-12.2-17.36-24.29-20.68-36.37-1.36-4.95.13-12.62-4.24-14.78-10.5-5.18-22,8.25-31.81,14.78-6.29,4.18-12.75,8.82-17,15.34-5.12,7.93-6.05,18.17-9,27.28-3.58,11-3.63,24.06-10.61,33-7.27,9.28-29.68,17.62-29.68,17.62s23.69-20.57,30.21-34.1c6.68-13.85.39-33.66,8.48-46.6,6.8-10.86,22.71-13,28.63-24.44,2.25-4.33,5-11.39,1.59-14.77-10.64-10.65-30.88-.22-42.94,8.52-7.11,5.15-14,13-20.67,18.76-10.7,9.16-26.65,5.72-31.81,19.32-9.12,24-54.07,25-54.07,25s40.42-7.73,34.45-26.71c-7.75-24.67-59.9.57-59.9.57s45.3-37.22,84.82-16.48c9.25,4.86,17.68-11.35,26.51-17.05,11.14-7.18,20.47-20.12,33.39-21.59,18.46-2.1,39,3,54.61-13.07,9.05-9.32,27,6,37.64-1.14,6.88-4.66,8.63-15,11.13-23.3s9.68-20.08,3.71-26.14c-11.93-12.11-32.27,6.67-48.24,10.8-16.92,4.37-33.18,11.78-50.36,14.77-15.72,2.74-32,.33-47.71,2.84-8.82,1.41-17.89,2.81-26,6.82-9.3,4.62-15.56,14.83-24.92,19.32-16.51,7.94-35.08,9.87-53,12.51-20.85-2.06-37.25-2.78-59.9-4,0,0,40.74-.24,60.43-5.12,11.29-2.79,27.87-1.71,38.17-7.38,10.11-5.58,22.88-14,22.79-26.14-.1-15-13.08-26.55-25.44-33.53-11.76-6.65-33.56-4.89-46.65-7.39-12.2-2.33-25.55-2.52-37.11,2.27-4.46,1.85-7.7,6.11-11.13,9.66-10.65,11-29.16,35.8-29.16,35.8S221,127.93,210.23,114c-6.47-8.42-29.15,9.66-29.15,9.66s18.33-15.39,29.15-19.32c11.78-4.28,22,4.46,34.46,4.54,15.83.11,34.42-6.68,49.83-2.84,21.4,5.33,40.61,18.63,62,23.87,14.9,3.65,32.08,13.27,47.18,10.8,20.74-3.39,42-9.32,58.85-22.73,3.52-2.81,7.34-16,5.83-20.46-9.66-28.11-54.78-13.54-82.7-14.78-17.19-.76-34.23,4.79-51.43,4.55-17.95-.25-35.59-6.2-53.54-6.25-15.45-.05-31.26.82-45.59-4.55C223.21,72,212.2,72,198.57,87.86c-7.62,8.86-39.76,35.8-39.76,35.8S186.37,86,199.63,76.49C209,69.79,221.8,60.43,232,65.7c19.2,9.93,36.62,10,53,3.4,10.94-4.39,22.78,7.16,34.46,6.82,9.08-.25,26,2.91,26.51-6.82,1.37-25.18-45.47-14.33-66.27-26.14C257,30.07,233.9,15.75,207,43.5c-29.37-42.62-67.8,28.14-67.25,29,0,0,18-38.4,30.21-47.17,7.7-5.55,19.83-1.23,25.09-9.75,25.28-1.76,50.08,13,73,10.88,19.73-1.85,39,26.23,66.26,23.3,9.36-1,16.47,10.07,25.45,13.07,35.87,12,75.45,9.94,110.61,15.5,13.53-8,36.23-3.67,51.08-14.93,8.09-6.12,12.76-16.53,17-26.14C541.5,30.5,542,3,542,3Z" style="stroke:#000;stroke-miterlimit:10;stroke-width:6px;fill-rule:evenodd"/></g></g></svg>