<svg xmlns="http://www.w3.org/2000/svg" viewBox="0 0 32 32"><g data-name="Layer 11"><path fill="none" stroke="#00b5e9" stroke-miterlimit="10" d="M18.6,18.5l-1.9,2H5.5a1,1,0,0,1-1-1v-1Z"/><path fill="none" stroke="#00b5e9" stroke-miterlimit="10" d="M5.5,20.5l1,5H18c6.24-1.08,10.39-4.68,11.5-10"/><line x1="29.5" x2="21.5" y1="15.5" y2="15.5" fill="none" stroke="#00b5e9" stroke-linecap="round" stroke-miterlimit="10"/><path fill="none" stroke="#00b5e9" stroke-miterlimit="10" d="M18.6,18.5,16,11h1.09a1,1,0,0,1,.73.32l3.76,4.06Z"/><path fill="none" stroke="#00b5e9" stroke-linecap="round" stroke-miterlimit="10" d="M13.5 14.5h0a1 1 0 0 1 1 1v3a0 0 0 0 1 0 0h-2a0 0 0 0 1 0 0v-3A1 1 0 0 1 13.5 14.5zM4.5 18.5v-3a1 1 0 0 1 1-1h1l2 4"/><polyline fill="none" stroke="#00b5e9" stroke-linecap="round" stroke-miterlimit="10" points="2.5 8.5 2.5 6.5 16.5 6.5 16.5 11"/><path fill="none" stroke="#00b5e9" stroke-linecap="round" stroke-miterlimit="10" d="M6.5 8.5a1 1 0 0 1-2 0M4.5 8.5a1 1 0 0 1-2 0M8.5 8.5a1 1 0 0 1-2 0M10.5 8.5a1 1 0 0 1-2 0M12.5 8.5a1 1 0 0 1-2 0M16.5 8.5a1 1 0 0 1-2 0M14.5 8.5a1 1 0 0 1-2 0"/><line x1="5.5" x2="5.5" y1="14.5" y2="9.5" fill="none" stroke="#00b5e9" stroke-linecap="round" stroke-miterlimit="10"/><line x1="6.1" x2="23.69" y1="23.5" y2="23.5" fill="none" stroke="#00b5e9" stroke-linecap="round" stroke-miterlimit="10"/><line x1="5.85" x2="3" y1="22.25" y2="25" fill="none" stroke="#00b5e9" stroke-linecap="round" stroke-miterlimit="10"/><line x1="2.5" x2="4.5" y1="23.5" y2="25.5" fill="none" stroke="#00b5e9" stroke-linecap="round" stroke-miterlimit="10"/></g></svg>