<svg xmlns="http://www.w3.org/2000/svg" enable-background="new 0 0 64 64" viewBox="0 0 64 64"><ellipse cx="33.35" cy="13.87" rx="13.87" ry="13.87" transform="rotate(-67.697 33.348 13.873)" fill="#fff"/><path fill="#fff" d="M47.11 34.88c-4.42 0-8.01 3.59-8.01 8.01 0 4.41 3.59 8 8.01 8 4.41 0 8-3.59 8-8C55.11 38.47 51.51 34.88 47.11 34.88zM14.99 26.71c-3.37 0-6.1 2.74-6.1 6.1 0 3.37 2.74 6.1 6.1 6.1 3.37 0 6.1-2.74 6.1-6.1C21.09 29.45 18.36 26.71 14.99 26.71zM32.73 51.48c-3.46 0-6.27 2.81-6.27 6.26 0 3.46 2.81 6.27 6.27 6.27 3.45 0 6.27-2.81 6.27-6.27C38.99 54.29 36.18 51.48 32.73 51.48zM29.56 43.6c2 0 3.64-1.64 3.64-3.65 0-2-1.64-3.64-3.64-3.64-2.01 0-3.64 1.64-3.64 3.64C25.91 41.96 27.55 43.6 29.56 43.6z"/></svg>